M48
; DRILL file {KiCad 8.0.0} date 2025-02-17T23:06:24+0530
; FORMAT={-:-/ absolute / inch / decimal}
; #@! TF.CreationDate,2025-02-17T23:06:24+05:30
; #@! TF.GenerationSoftware,Kicad,Pcbnew,8.0.0
; #@! TF.FileFunction,Plated,1,2,PTH
FMAT,2
INCH
; #@! TA.AperFunction,Plated,PTH,ComponentDrill
T1C0.0079
; #@! TA.AperFunction,Plated,PTH,ViaDrill
T2C0.0118
; #@! TA.AperFunction,Plated,PTH,ComponentDrill
T3C0.0394
; #@! TA.AperFunction,Plated,PTH,ComponentDrill
T4C0.0421
; #@! TA.AperFunction,Plated,PTH,ComponentDrill
T5C0.0433
%
G90
G05
T1
X5.7384Y-4.7916
X5.7384Y-4.8517
X5.7684Y-4.7616
X5.7684Y-4.8217
X5.7684Y-4.8817
X5.7984Y-4.7916
X5.7984Y-4.8517
X5.8284Y-4.7616
X5.8284Y-4.8217
X5.8284Y-4.8817
X5.8585Y-4.7916
X5.8585Y-4.8517
T2
X3.0417Y-4.5591
X3.062Y-5.352
X3.31Y-5.326
X3.3169Y-4.7539
X3.3661Y-5.2559
X3.576Y-5.34
X3.594Y-5.112
X3.706Y-5.054
X3.902Y-4.982
X4.156Y-5.346
X4.2236Y-4.1358
X4.2315Y-3.9445
X4.4488Y-4.311
X4.5276Y-4.2421
X4.626Y-4.5079
X4.904Y-5.332
X4.9409Y-4.5276
X4.9754Y-4.4537
X5.0Y-4.4094
X5.0394Y-4.5866
X5.128Y-4.5276
X5.128Y-5.3051
X5.1378Y-4.3504
X5.2067Y-5.2756
X5.2165Y-4.4587
X5.2299Y-5.3894
X5.2756Y-4.4094
X5.2756Y-5.3307
X5.2895Y-4.1495
X5.3051Y-4.1929
X5.3051Y-4.2618
X5.308Y-4.678
X5.31Y-4.448
X5.31Y-4.514
X5.5303Y-5.3858
X5.5311Y-5.3295
X5.5315Y-5.2756
X5.5709Y-4.1535
X5.5709Y-4.2224
X5.5709Y-4.2717
X5.5906Y-5.2953
X5.6004Y-4.4291
X5.6496Y-4.4291
X5.6988Y-4.4291
X5.8366Y-5.3445
X5.8874Y-5.262
X5.9449Y-5.2756
X5.9843Y-5.3839
X6.0409Y-5.2724
T3
X4.1224Y-3.8996
X4.1224Y-3.9996
X4.1224Y-4.0996
X4.1224Y-4.1996
X5.4242Y-3.9707
X5.5242Y-3.9707
X5.6242Y-3.9707
X5.7242Y-3.9707
T4
X3.1008Y-4.6535
X3.1008Y-4.7535
X3.1008Y-4.8535
X3.1008Y-4.9535
X3.2008Y-4.6535
X3.2008Y-4.7535
X3.2008Y-4.8535
X3.2008Y-4.9535
T5
X4.7819Y-3.9575
X4.9819Y-3.9575
M30
