%TF.GenerationSoftware,KiCad,Pcbnew,8.0.0*%
%TF.CreationDate,2025-02-17T23:06:34+05:30*%
%TF.ProjectId,Remote_motorcycle,52656d6f-7465-45f6-9d6f-746f72637963,rev?*%
%TF.SameCoordinates,Original*%
%TF.FileFunction,Soldermask,Top*%
%TF.FilePolarity,Negative*%
%FSLAX46Y46*%
G04 Gerber Fmt 4.6, Leading zero omitted, Abs format (unit mm)*
G04 Created by KiCad (PCBNEW 8.0.0) date 2025-02-17 23:06:34*
%MOMM*%
%LPD*%
G01*
G04 APERTURE LIST*
G04 Aperture macros list*
%AMRoundRect*
0 Rectangle with rounded corners*
0 $1 Rounding radius*
0 $2 $3 $4 $5 $6 $7 $8 $9 X,Y pos of 4 corners*
0 Add a 4 corners polygon primitive as box body*
4,1,4,$2,$3,$4,$5,$6,$7,$8,$9,$2,$3,0*
0 Add four circle primitives for the rounded corners*
1,1,$1+$1,$2,$3*
1,1,$1+$1,$4,$5*
1,1,$1+$1,$6,$7*
1,1,$1+$1,$8,$9*
0 Add four rect primitives between the rounded corners*
20,1,$1+$1,$2,$3,$4,$5,0*
20,1,$1+$1,$4,$5,$6,$7,0*
20,1,$1+$1,$6,$7,$8,$9,0*
20,1,$1+$1,$8,$9,$2,$3,0*%
G04 Aperture macros list end*
%ADD10R,1.300000X1.550000*%
%ADD11RoundRect,0.250000X-0.350000X-0.450000X0.350000X-0.450000X0.350000X0.450000X-0.350000X0.450000X0*%
%ADD12R,1.500000X1.500000*%
%ADD13R,1.700000X1.700000*%
%ADD14O,1.700000X1.700000*%
%ADD15RoundRect,0.237500X0.237500X-0.300000X0.237500X0.300000X-0.237500X0.300000X-0.237500X-0.300000X0*%
%ADD16RoundRect,0.237500X-0.237500X0.300000X-0.237500X-0.300000X0.237500X-0.300000X0.237500X0.300000X0*%
%ADD17R,0.900000X1.500000*%
%ADD18R,1.500000X0.900000*%
%ADD19C,0.600000*%
%ADD20R,4.200000X4.200000*%
%ADD21RoundRect,0.250000X0.350000X0.450000X-0.350000X0.450000X-0.350000X-0.450000X0.350000X-0.450000X0*%
%ADD22RoundRect,0.250001X-0.462499X-0.624999X0.462499X-0.624999X0.462499X0.624999X-0.462499X0.624999X0*%
%ADD23RoundRect,0.102000X-0.825000X-0.825000X0.825000X-0.825000X0.825000X0.825000X-0.825000X0.825000X0*%
%ADD24C,1.854000*%
%ADD25RoundRect,0.237500X-0.287500X-0.237500X0.287500X-0.237500X0.287500X0.237500X-0.287500X0.237500X0*%
%ADD26RoundRect,0.375000X-0.625000X-0.375000X0.625000X-0.375000X0.625000X0.375000X-0.625000X0.375000X0*%
%ADD27RoundRect,0.500000X-0.500000X-1.400000X0.500000X-1.400000X0.500000X1.400000X-0.500000X1.400000X0*%
%ADD28RoundRect,0.250001X0.462499X0.624999X-0.462499X0.624999X-0.462499X-0.624999X0.462499X-0.624999X0*%
%ADD29RoundRect,0.102000X0.802500X-0.802500X0.802500X0.802500X-0.802500X0.802500X-0.802500X-0.802500X0*%
%ADD30C,1.809000*%
G04 APERTURE END LIST*
D10*
%TO.C,SW4*%
X128480000Y-150560000D03*
X128480000Y-142610000D03*
X132980000Y-150560000D03*
X132980000Y-142610000D03*
%TD*%
D11*
%TO.C,R7*%
X126610000Y-138560000D03*
X128610000Y-138560000D03*
%TD*%
%TO.C,R1*%
X78780000Y-137940000D03*
X80780000Y-137940000D03*
%TD*%
D12*
%TO.C,TP7*%
X88680000Y-113810000D03*
%TD*%
%TO.C,TP3*%
X123370000Y-141990000D03*
%TD*%
D13*
%TO.C,J1*%
X104710000Y-99050000D03*
D14*
X104710000Y-101590000D03*
X104710000Y-104130000D03*
X104710000Y-106670000D03*
%TD*%
D12*
%TO.C,TP1*%
X147340000Y-105550000D03*
%TD*%
D13*
%TO.C,J4*%
X137775000Y-100855000D03*
D14*
X140315000Y-100855000D03*
X142855000Y-100855000D03*
X145395000Y-100855000D03*
%TD*%
D15*
%TO.C,C4*%
X107287500Y-119892500D03*
X107287500Y-118167500D03*
%TD*%
D12*
%TO.C,TP6*%
X88760000Y-118440000D03*
%TD*%
D16*
%TO.C,C2*%
X93467500Y-123227500D03*
X93467500Y-124952500D03*
%TD*%
D17*
%TO.C,U1*%
X154620000Y-114400000D03*
X153350000Y-114400000D03*
X152080000Y-114400000D03*
X150810000Y-114400000D03*
X149540000Y-114400000D03*
X148270000Y-114400000D03*
X147000000Y-114400000D03*
X145730000Y-114400000D03*
X144460000Y-114400000D03*
X143190000Y-114400000D03*
X141920000Y-114400000D03*
X140650000Y-114400000D03*
X139380000Y-114400000D03*
X138110000Y-114400000D03*
D18*
X136860000Y-117440000D03*
X136860000Y-118710000D03*
X136860000Y-119980000D03*
X136860000Y-121250000D03*
X136860000Y-122520000D03*
X136860000Y-123790000D03*
X136860000Y-125060000D03*
X136860000Y-126330000D03*
X136860000Y-127600000D03*
X136860000Y-128870000D03*
D17*
X138110000Y-131900000D03*
X139380000Y-131900000D03*
X140650000Y-131900000D03*
X141920000Y-131900000D03*
X143190000Y-131900000D03*
X144460000Y-131900000D03*
X145730000Y-131900000D03*
X147000000Y-131900000D03*
X148270000Y-131900000D03*
X149540000Y-131900000D03*
X150810000Y-131900000D03*
X152080000Y-131900000D03*
X153350000Y-131900000D03*
X154620000Y-131900000D03*
D19*
X148042500Y-120945000D03*
X146517500Y-120945000D03*
X148805000Y-121707500D03*
X147280000Y-121707500D03*
X145755000Y-121707500D03*
X148042500Y-122470000D03*
D20*
X147280000Y-122470000D03*
D19*
X146517500Y-122470000D03*
X148805000Y-123232500D03*
X147280000Y-123232500D03*
X145755000Y-123232500D03*
X148042500Y-123995000D03*
X146517500Y-123995000D03*
%TD*%
D11*
%TO.C,R5*%
X106650000Y-137510000D03*
X108650000Y-137510000D03*
%TD*%
%TO.C,R6*%
X113510000Y-137510000D03*
X115510000Y-137510000D03*
%TD*%
D21*
%TO.C,R11*%
X140900000Y-138470000D03*
X138900000Y-138470000D03*
%TD*%
D22*
%TO.C,F1*%
X112305000Y-112790000D03*
X115280000Y-112790000D03*
%TD*%
D23*
%TO.C,J2*%
X121460000Y-100520000D03*
D24*
X126540000Y-100520000D03*
%TD*%
D25*
%TO.C,D1*%
X107020000Y-131310000D03*
X108770000Y-131310000D03*
%TD*%
D10*
%TO.C,SW3*%
X104440000Y-150160000D03*
X104440000Y-142210000D03*
X108940000Y-150160000D03*
X108940000Y-142210000D03*
%TD*%
D11*
%TO.C,R2*%
X84790000Y-138090000D03*
X86790000Y-138090000D03*
%TD*%
D12*
%TO.C,TP5*%
X109280000Y-100350000D03*
%TD*%
D10*
%TO.C,SW5*%
X141500000Y-150660000D03*
X141500000Y-142710000D03*
X146000000Y-150660000D03*
X146000000Y-142710000D03*
%TD*%
D16*
%TO.C,C1*%
X112117500Y-123377500D03*
X112117500Y-125102500D03*
%TD*%
D12*
%TO.C,TP4*%
X109470000Y-104830000D03*
%TD*%
D11*
%TO.C,R8*%
X133320000Y-138710000D03*
X135320000Y-138710000D03*
%TD*%
D26*
%TO.C,U2*%
X115290000Y-118550000D03*
X115290000Y-120850000D03*
D27*
X121590000Y-120850000D03*
D26*
X115290000Y-123150000D03*
%TD*%
D21*
%TO.C,R10*%
X147360000Y-138470000D03*
X145360000Y-138470000D03*
%TD*%
D28*
%TO.C,F2*%
X106700000Y-112880000D03*
X103725000Y-112880000D03*
%TD*%
D21*
%TO.C,R9*%
X115810000Y-131190000D03*
X113810000Y-131190000D03*
%TD*%
D10*
%TO.C,SW1*%
X81500000Y-150360000D03*
X81500000Y-142410000D03*
X86000000Y-150360000D03*
X86000000Y-142410000D03*
%TD*%
D11*
%TO.C,R3*%
X91750000Y-137740000D03*
X93750000Y-137740000D03*
%TD*%
D26*
%TO.C,U3*%
X96930000Y-118010000D03*
X96930000Y-120310000D03*
D27*
X103230000Y-120310000D03*
D26*
X96930000Y-122610000D03*
%TD*%
D16*
%TO.C,C3*%
X125467500Y-121027500D03*
X125467500Y-122752500D03*
%TD*%
D11*
%TO.C,R4*%
X98510000Y-137740000D03*
X100510000Y-137740000D03*
%TD*%
D12*
%TO.C,TP2*%
X151570000Y-141410000D03*
%TD*%
D10*
%TO.C,SW2*%
X92920000Y-150260000D03*
X92920000Y-142310000D03*
X97420000Y-150260000D03*
X97420000Y-142310000D03*
%TD*%
D29*
%TO.C,J3*%
X78760000Y-125820000D03*
D30*
X81300000Y-125820000D03*
X78760000Y-123280000D03*
X81300000Y-123280000D03*
X78760000Y-120740000D03*
X81300000Y-120740000D03*
X78760000Y-118200000D03*
X81300000Y-118200000D03*
%TD*%
M02*
