%TF.GenerationSoftware,KiCad,Pcbnew,8.0.0*%
%TF.CreationDate,2025-02-17T23:06:34+05:30*%
%TF.ProjectId,Remote_motorcycle,52656d6f-7465-45f6-9d6f-746f72637963,rev?*%
%TF.SameCoordinates,Original*%
%TF.FileFunction,Legend,Top*%
%TF.FilePolarity,Positive*%
%FSLAX46Y46*%
G04 Gerber Fmt 4.6, Leading zero omitted, Abs format (unit mm)*
G04 Created by KiCad (PCBNEW 8.0.0) date 2025-02-17 23:06:34*
%MOMM*%
%LPD*%
G01*
G04 APERTURE LIST*
%ADD10C,0.100000*%
%ADD11C,0.150000*%
%ADD12C,0.120000*%
%ADD13C,0.127000*%
G04 APERTURE END LIST*
D10*
X126113884Y-98351466D02*
X126875789Y-98351466D01*
X118233884Y-106652419D02*
X118233884Y-105652419D01*
X118233884Y-105652419D02*
X118614836Y-105652419D01*
X118614836Y-105652419D02*
X118710074Y-105700038D01*
X118710074Y-105700038D02*
X118757693Y-105747657D01*
X118757693Y-105747657D02*
X118805312Y-105842895D01*
X118805312Y-105842895D02*
X118805312Y-105985752D01*
X118805312Y-105985752D02*
X118757693Y-106080990D01*
X118757693Y-106080990D02*
X118710074Y-106128609D01*
X118710074Y-106128609D02*
X118614836Y-106176228D01*
X118614836Y-106176228D02*
X118233884Y-106176228D01*
X119424360Y-105652419D02*
X119614836Y-105652419D01*
X119614836Y-105652419D02*
X119710074Y-105700038D01*
X119710074Y-105700038D02*
X119805312Y-105795276D01*
X119805312Y-105795276D02*
X119852931Y-105985752D01*
X119852931Y-105985752D02*
X119852931Y-106319085D01*
X119852931Y-106319085D02*
X119805312Y-106509561D01*
X119805312Y-106509561D02*
X119710074Y-106604800D01*
X119710074Y-106604800D02*
X119614836Y-106652419D01*
X119614836Y-106652419D02*
X119424360Y-106652419D01*
X119424360Y-106652419D02*
X119329122Y-106604800D01*
X119329122Y-106604800D02*
X119233884Y-106509561D01*
X119233884Y-106509561D02*
X119186265Y-106319085D01*
X119186265Y-106319085D02*
X119186265Y-105985752D01*
X119186265Y-105985752D02*
X119233884Y-105795276D01*
X119233884Y-105795276D02*
X119329122Y-105700038D01*
X119329122Y-105700038D02*
X119424360Y-105652419D01*
X120186265Y-105652419D02*
X120424360Y-106652419D01*
X120424360Y-106652419D02*
X120614836Y-105938133D01*
X120614836Y-105938133D02*
X120805312Y-106652419D01*
X120805312Y-106652419D02*
X121043408Y-105652419D01*
X121424360Y-106128609D02*
X121757693Y-106128609D01*
X121900550Y-106652419D02*
X121424360Y-106652419D01*
X121424360Y-106652419D02*
X121424360Y-105652419D01*
X121424360Y-105652419D02*
X121900550Y-105652419D01*
X122900550Y-106652419D02*
X122567217Y-106176228D01*
X122329122Y-106652419D02*
X122329122Y-105652419D01*
X122329122Y-105652419D02*
X122710074Y-105652419D01*
X122710074Y-105652419D02*
X122805312Y-105700038D01*
X122805312Y-105700038D02*
X122852931Y-105747657D01*
X122852931Y-105747657D02*
X122900550Y-105842895D01*
X122900550Y-105842895D02*
X122900550Y-105985752D01*
X122900550Y-105985752D02*
X122852931Y-106080990D01*
X122852931Y-106080990D02*
X122805312Y-106128609D01*
X122805312Y-106128609D02*
X122710074Y-106176228D01*
X122710074Y-106176228D02*
X122329122Y-106176228D01*
X124043408Y-106604800D02*
X124186265Y-106652419D01*
X124186265Y-106652419D02*
X124424360Y-106652419D01*
X124424360Y-106652419D02*
X124519598Y-106604800D01*
X124519598Y-106604800D02*
X124567217Y-106557180D01*
X124567217Y-106557180D02*
X124614836Y-106461942D01*
X124614836Y-106461942D02*
X124614836Y-106366704D01*
X124614836Y-106366704D02*
X124567217Y-106271466D01*
X124567217Y-106271466D02*
X124519598Y-106223847D01*
X124519598Y-106223847D02*
X124424360Y-106176228D01*
X124424360Y-106176228D02*
X124233884Y-106128609D01*
X124233884Y-106128609D02*
X124138646Y-106080990D01*
X124138646Y-106080990D02*
X124091027Y-106033371D01*
X124091027Y-106033371D02*
X124043408Y-105938133D01*
X124043408Y-105938133D02*
X124043408Y-105842895D01*
X124043408Y-105842895D02*
X124091027Y-105747657D01*
X124091027Y-105747657D02*
X124138646Y-105700038D01*
X124138646Y-105700038D02*
X124233884Y-105652419D01*
X124233884Y-105652419D02*
X124471979Y-105652419D01*
X124471979Y-105652419D02*
X124614836Y-105700038D01*
X125043408Y-105652419D02*
X125043408Y-106461942D01*
X125043408Y-106461942D02*
X125091027Y-106557180D01*
X125091027Y-106557180D02*
X125138646Y-106604800D01*
X125138646Y-106604800D02*
X125233884Y-106652419D01*
X125233884Y-106652419D02*
X125424360Y-106652419D01*
X125424360Y-106652419D02*
X125519598Y-106604800D01*
X125519598Y-106604800D02*
X125567217Y-106557180D01*
X125567217Y-106557180D02*
X125614836Y-106461942D01*
X125614836Y-106461942D02*
X125614836Y-105652419D01*
X126091027Y-106652419D02*
X126091027Y-105652419D01*
X126091027Y-105652419D02*
X126471979Y-105652419D01*
X126471979Y-105652419D02*
X126567217Y-105700038D01*
X126567217Y-105700038D02*
X126614836Y-105747657D01*
X126614836Y-105747657D02*
X126662455Y-105842895D01*
X126662455Y-105842895D02*
X126662455Y-105985752D01*
X126662455Y-105985752D02*
X126614836Y-106080990D01*
X126614836Y-106080990D02*
X126567217Y-106128609D01*
X126567217Y-106128609D02*
X126471979Y-106176228D01*
X126471979Y-106176228D02*
X126091027Y-106176228D01*
X127091027Y-106652419D02*
X127091027Y-105652419D01*
X127091027Y-105652419D02*
X127471979Y-105652419D01*
X127471979Y-105652419D02*
X127567217Y-105700038D01*
X127567217Y-105700038D02*
X127614836Y-105747657D01*
X127614836Y-105747657D02*
X127662455Y-105842895D01*
X127662455Y-105842895D02*
X127662455Y-105985752D01*
X127662455Y-105985752D02*
X127614836Y-106080990D01*
X127614836Y-106080990D02*
X127567217Y-106128609D01*
X127567217Y-106128609D02*
X127471979Y-106176228D01*
X127471979Y-106176228D02*
X127091027Y-106176228D01*
X128567217Y-106652419D02*
X128091027Y-106652419D01*
X128091027Y-106652419D02*
X128091027Y-105652419D01*
X129091027Y-106176228D02*
X129091027Y-106652419D01*
X128757694Y-105652419D02*
X129091027Y-106176228D01*
X129091027Y-106176228D02*
X129424360Y-105652419D01*
X111057580Y-100265312D02*
X111533771Y-99931979D01*
X111057580Y-99693884D02*
X112057580Y-99693884D01*
X112057580Y-99693884D02*
X112057580Y-100074836D01*
X112057580Y-100074836D02*
X112009961Y-100170074D01*
X112009961Y-100170074D02*
X111962342Y-100217693D01*
X111962342Y-100217693D02*
X111867104Y-100265312D01*
X111867104Y-100265312D02*
X111724247Y-100265312D01*
X111724247Y-100265312D02*
X111629009Y-100217693D01*
X111629009Y-100217693D02*
X111581390Y-100170074D01*
X111581390Y-100170074D02*
X111533771Y-100074836D01*
X111533771Y-100074836D02*
X111533771Y-99693884D01*
X112057580Y-100598646D02*
X111057580Y-101265312D01*
X112057580Y-101265312D02*
X111057580Y-100598646D01*
X148078609Y-147932782D02*
X148126228Y-147789925D01*
X148126228Y-147789925D02*
X148173847Y-147742306D01*
X148173847Y-147742306D02*
X148269085Y-147694687D01*
X148269085Y-147694687D02*
X148411942Y-147694687D01*
X148411942Y-147694687D02*
X148507180Y-147742306D01*
X148507180Y-147742306D02*
X148554800Y-147789925D01*
X148554800Y-147789925D02*
X148602419Y-147885163D01*
X148602419Y-147885163D02*
X148602419Y-148266115D01*
X148602419Y-148266115D02*
X147602419Y-148266115D01*
X147602419Y-148266115D02*
X147602419Y-147932782D01*
X147602419Y-147932782D02*
X147650038Y-147837544D01*
X147650038Y-147837544D02*
X147697657Y-147789925D01*
X147697657Y-147789925D02*
X147792895Y-147742306D01*
X147792895Y-147742306D02*
X147888133Y-147742306D01*
X147888133Y-147742306D02*
X147983371Y-147789925D01*
X147983371Y-147789925D02*
X148030990Y-147837544D01*
X148030990Y-147837544D02*
X148078609Y-147932782D01*
X148078609Y-147932782D02*
X148078609Y-148266115D01*
X147602419Y-147075639D02*
X147602419Y-146885163D01*
X147602419Y-146885163D02*
X147650038Y-146789925D01*
X147650038Y-146789925D02*
X147745276Y-146694687D01*
X147745276Y-146694687D02*
X147935752Y-146647068D01*
X147935752Y-146647068D02*
X148269085Y-146647068D01*
X148269085Y-146647068D02*
X148459561Y-146694687D01*
X148459561Y-146694687D02*
X148554800Y-146789925D01*
X148554800Y-146789925D02*
X148602419Y-146885163D01*
X148602419Y-146885163D02*
X148602419Y-147075639D01*
X148602419Y-147075639D02*
X148554800Y-147170877D01*
X148554800Y-147170877D02*
X148459561Y-147266115D01*
X148459561Y-147266115D02*
X148269085Y-147313734D01*
X148269085Y-147313734D02*
X147935752Y-147313734D01*
X147935752Y-147313734D02*
X147745276Y-147266115D01*
X147745276Y-147266115D02*
X147650038Y-147170877D01*
X147650038Y-147170877D02*
X147602419Y-147075639D01*
X147602419Y-146028020D02*
X147602419Y-145837544D01*
X147602419Y-145837544D02*
X147650038Y-145742306D01*
X147650038Y-145742306D02*
X147745276Y-145647068D01*
X147745276Y-145647068D02*
X147935752Y-145599449D01*
X147935752Y-145599449D02*
X148269085Y-145599449D01*
X148269085Y-145599449D02*
X148459561Y-145647068D01*
X148459561Y-145647068D02*
X148554800Y-145742306D01*
X148554800Y-145742306D02*
X148602419Y-145837544D01*
X148602419Y-145837544D02*
X148602419Y-146028020D01*
X148602419Y-146028020D02*
X148554800Y-146123258D01*
X148554800Y-146123258D02*
X148459561Y-146218496D01*
X148459561Y-146218496D02*
X148269085Y-146266115D01*
X148269085Y-146266115D02*
X147935752Y-146266115D01*
X147935752Y-146266115D02*
X147745276Y-146218496D01*
X147745276Y-146218496D02*
X147650038Y-146123258D01*
X147650038Y-146123258D02*
X147602419Y-146028020D01*
X147602419Y-145313734D02*
X147602419Y-144742306D01*
X148602419Y-145028020D02*
X147602419Y-145028020D01*
X150357580Y-104691027D02*
X149357580Y-105024360D01*
X149357580Y-105024360D02*
X150357580Y-105357693D01*
X149357580Y-105691027D02*
X150357580Y-105691027D01*
X150357580Y-105691027D02*
X150357580Y-105929122D01*
X150357580Y-105929122D02*
X150309961Y-106071979D01*
X150309961Y-106071979D02*
X150214723Y-106167217D01*
X150214723Y-106167217D02*
X150119485Y-106214836D01*
X150119485Y-106214836D02*
X149929009Y-106262455D01*
X149929009Y-106262455D02*
X149786152Y-106262455D01*
X149786152Y-106262455D02*
X149595676Y-106214836D01*
X149595676Y-106214836D02*
X149500438Y-106167217D01*
X149500438Y-106167217D02*
X149405200Y-106071979D01*
X149405200Y-106071979D02*
X149357580Y-105929122D01*
X149357580Y-105929122D02*
X149357580Y-105691027D01*
X149357580Y-106691027D02*
X150357580Y-106691027D01*
X150357580Y-106691027D02*
X150357580Y-106929122D01*
X150357580Y-106929122D02*
X150309961Y-107071979D01*
X150309961Y-107071979D02*
X150214723Y-107167217D01*
X150214723Y-107167217D02*
X150119485Y-107214836D01*
X150119485Y-107214836D02*
X149929009Y-107262455D01*
X149929009Y-107262455D02*
X149786152Y-107262455D01*
X149786152Y-107262455D02*
X149595676Y-107214836D01*
X149595676Y-107214836D02*
X149500438Y-107167217D01*
X149500438Y-107167217D02*
X149405200Y-107071979D01*
X149405200Y-107071979D02*
X149357580Y-106929122D01*
X149357580Y-106929122D02*
X149357580Y-106691027D01*
X121445312Y-144672419D02*
X121111979Y-144196228D01*
X120873884Y-144672419D02*
X120873884Y-143672419D01*
X120873884Y-143672419D02*
X121254836Y-143672419D01*
X121254836Y-143672419D02*
X121350074Y-143720038D01*
X121350074Y-143720038D02*
X121397693Y-143767657D01*
X121397693Y-143767657D02*
X121445312Y-143862895D01*
X121445312Y-143862895D02*
X121445312Y-144005752D01*
X121445312Y-144005752D02*
X121397693Y-144100990D01*
X121397693Y-144100990D02*
X121350074Y-144148609D01*
X121350074Y-144148609D02*
X121254836Y-144196228D01*
X121254836Y-144196228D02*
X120873884Y-144196228D01*
X121873884Y-144148609D02*
X122207217Y-144148609D01*
X122350074Y-144672419D02*
X121873884Y-144672419D01*
X121873884Y-144672419D02*
X121873884Y-143672419D01*
X121873884Y-143672419D02*
X122350074Y-143672419D01*
X122731027Y-144624800D02*
X122873884Y-144672419D01*
X122873884Y-144672419D02*
X123111979Y-144672419D01*
X123111979Y-144672419D02*
X123207217Y-144624800D01*
X123207217Y-144624800D02*
X123254836Y-144577180D01*
X123254836Y-144577180D02*
X123302455Y-144481942D01*
X123302455Y-144481942D02*
X123302455Y-144386704D01*
X123302455Y-144386704D02*
X123254836Y-144291466D01*
X123254836Y-144291466D02*
X123207217Y-144243847D01*
X123207217Y-144243847D02*
X123111979Y-144196228D01*
X123111979Y-144196228D02*
X122921503Y-144148609D01*
X122921503Y-144148609D02*
X122826265Y-144100990D01*
X122826265Y-144100990D02*
X122778646Y-144053371D01*
X122778646Y-144053371D02*
X122731027Y-143958133D01*
X122731027Y-143958133D02*
X122731027Y-143862895D01*
X122731027Y-143862895D02*
X122778646Y-143767657D01*
X122778646Y-143767657D02*
X122826265Y-143720038D01*
X122826265Y-143720038D02*
X122921503Y-143672419D01*
X122921503Y-143672419D02*
X123159598Y-143672419D01*
X123159598Y-143672419D02*
X123302455Y-143720038D01*
X123731027Y-144148609D02*
X124064360Y-144148609D01*
X124207217Y-144672419D02*
X123731027Y-144672419D01*
X123731027Y-144672419D02*
X123731027Y-143672419D01*
X123731027Y-143672419D02*
X124207217Y-143672419D01*
X124492932Y-143672419D02*
X125064360Y-143672419D01*
X124778646Y-144672419D02*
X124778646Y-143672419D01*
X90435200Y-112766265D02*
X90387580Y-112909122D01*
X90387580Y-112909122D02*
X90387580Y-113147217D01*
X90387580Y-113147217D02*
X90435200Y-113242455D01*
X90435200Y-113242455D02*
X90482819Y-113290074D01*
X90482819Y-113290074D02*
X90578057Y-113337693D01*
X90578057Y-113337693D02*
X90673295Y-113337693D01*
X90673295Y-113337693D02*
X90768533Y-113290074D01*
X90768533Y-113290074D02*
X90816152Y-113242455D01*
X90816152Y-113242455D02*
X90863771Y-113147217D01*
X90863771Y-113147217D02*
X90911390Y-112956741D01*
X90911390Y-112956741D02*
X90959009Y-112861503D01*
X90959009Y-112861503D02*
X91006628Y-112813884D01*
X91006628Y-112813884D02*
X91101866Y-112766265D01*
X91101866Y-112766265D02*
X91197104Y-112766265D01*
X91197104Y-112766265D02*
X91292342Y-112813884D01*
X91292342Y-112813884D02*
X91339961Y-112861503D01*
X91339961Y-112861503D02*
X91387580Y-112956741D01*
X91387580Y-112956741D02*
X91387580Y-113194836D01*
X91387580Y-113194836D02*
X91339961Y-113337693D01*
X90482819Y-114337693D02*
X90435200Y-114290074D01*
X90435200Y-114290074D02*
X90387580Y-114147217D01*
X90387580Y-114147217D02*
X90387580Y-114051979D01*
X90387580Y-114051979D02*
X90435200Y-113909122D01*
X90435200Y-113909122D02*
X90530438Y-113813884D01*
X90530438Y-113813884D02*
X90625676Y-113766265D01*
X90625676Y-113766265D02*
X90816152Y-113718646D01*
X90816152Y-113718646D02*
X90959009Y-113718646D01*
X90959009Y-113718646D02*
X91149485Y-113766265D01*
X91149485Y-113766265D02*
X91244723Y-113813884D01*
X91244723Y-113813884D02*
X91339961Y-113909122D01*
X91339961Y-113909122D02*
X91387580Y-114051979D01*
X91387580Y-114051979D02*
X91387580Y-114147217D01*
X91387580Y-114147217D02*
X91339961Y-114290074D01*
X91339961Y-114290074D02*
X91292342Y-114337693D01*
X90387580Y-115242455D02*
X90387580Y-114766265D01*
X90387580Y-114766265D02*
X91387580Y-114766265D01*
X135692419Y-147694687D02*
X135216228Y-148028020D01*
X135692419Y-148266115D02*
X134692419Y-148266115D01*
X134692419Y-148266115D02*
X134692419Y-147885163D01*
X134692419Y-147885163D02*
X134740038Y-147789925D01*
X134740038Y-147789925D02*
X134787657Y-147742306D01*
X134787657Y-147742306D02*
X134882895Y-147694687D01*
X134882895Y-147694687D02*
X135025752Y-147694687D01*
X135025752Y-147694687D02*
X135120990Y-147742306D01*
X135120990Y-147742306D02*
X135168609Y-147789925D01*
X135168609Y-147789925D02*
X135216228Y-147885163D01*
X135216228Y-147885163D02*
X135216228Y-148266115D01*
X135168609Y-147266115D02*
X135168609Y-146932782D01*
X135692419Y-146789925D02*
X135692419Y-147266115D01*
X135692419Y-147266115D02*
X134692419Y-147266115D01*
X134692419Y-147266115D02*
X134692419Y-146789925D01*
X135644800Y-146408972D02*
X135692419Y-146266115D01*
X135692419Y-146266115D02*
X135692419Y-146028020D01*
X135692419Y-146028020D02*
X135644800Y-145932782D01*
X135644800Y-145932782D02*
X135597180Y-145885163D01*
X135597180Y-145885163D02*
X135501942Y-145837544D01*
X135501942Y-145837544D02*
X135406704Y-145837544D01*
X135406704Y-145837544D02*
X135311466Y-145885163D01*
X135311466Y-145885163D02*
X135263847Y-145932782D01*
X135263847Y-145932782D02*
X135216228Y-146028020D01*
X135216228Y-146028020D02*
X135168609Y-146218496D01*
X135168609Y-146218496D02*
X135120990Y-146313734D01*
X135120990Y-146313734D02*
X135073371Y-146361353D01*
X135073371Y-146361353D02*
X134978133Y-146408972D01*
X134978133Y-146408972D02*
X134882895Y-146408972D01*
X134882895Y-146408972D02*
X134787657Y-146361353D01*
X134787657Y-146361353D02*
X134740038Y-146313734D01*
X134740038Y-146313734D02*
X134692419Y-146218496D01*
X134692419Y-146218496D02*
X134692419Y-145980401D01*
X134692419Y-145980401D02*
X134740038Y-145837544D01*
X135168609Y-145408972D02*
X135168609Y-145075639D01*
X135692419Y-144932782D02*
X135692419Y-145408972D01*
X135692419Y-145408972D02*
X134692419Y-145408972D01*
X134692419Y-145408972D02*
X134692419Y-144932782D01*
X134692419Y-144647067D02*
X134692419Y-144075639D01*
X135692419Y-144361353D02*
X134692419Y-144361353D01*
X92568609Y-105912782D02*
X92616228Y-105769925D01*
X92616228Y-105769925D02*
X92663847Y-105722306D01*
X92663847Y-105722306D02*
X92759085Y-105674687D01*
X92759085Y-105674687D02*
X92901942Y-105674687D01*
X92901942Y-105674687D02*
X92997180Y-105722306D01*
X92997180Y-105722306D02*
X93044800Y-105769925D01*
X93044800Y-105769925D02*
X93092419Y-105865163D01*
X93092419Y-105865163D02*
X93092419Y-106246115D01*
X93092419Y-106246115D02*
X92092419Y-106246115D01*
X92092419Y-106246115D02*
X92092419Y-105912782D01*
X92092419Y-105912782D02*
X92140038Y-105817544D01*
X92140038Y-105817544D02*
X92187657Y-105769925D01*
X92187657Y-105769925D02*
X92282895Y-105722306D01*
X92282895Y-105722306D02*
X92378133Y-105722306D01*
X92378133Y-105722306D02*
X92473371Y-105769925D01*
X92473371Y-105769925D02*
X92520990Y-105817544D01*
X92520990Y-105817544D02*
X92568609Y-105912782D01*
X92568609Y-105912782D02*
X92568609Y-106246115D01*
X93092419Y-105103258D02*
X93044800Y-105198496D01*
X93044800Y-105198496D02*
X92949561Y-105246115D01*
X92949561Y-105246115D02*
X92092419Y-105246115D01*
X92425752Y-104293734D02*
X93092419Y-104293734D01*
X92425752Y-104722305D02*
X92949561Y-104722305D01*
X92949561Y-104722305D02*
X93044800Y-104674686D01*
X93044800Y-104674686D02*
X93092419Y-104579448D01*
X93092419Y-104579448D02*
X93092419Y-104436591D01*
X93092419Y-104436591D02*
X93044800Y-104341353D01*
X93044800Y-104341353D02*
X92997180Y-104293734D01*
X93044800Y-103436591D02*
X93092419Y-103531829D01*
X93092419Y-103531829D02*
X93092419Y-103722305D01*
X93092419Y-103722305D02*
X93044800Y-103817543D01*
X93044800Y-103817543D02*
X92949561Y-103865162D01*
X92949561Y-103865162D02*
X92568609Y-103865162D01*
X92568609Y-103865162D02*
X92473371Y-103817543D01*
X92473371Y-103817543D02*
X92425752Y-103722305D01*
X92425752Y-103722305D02*
X92425752Y-103531829D01*
X92425752Y-103531829D02*
X92473371Y-103436591D01*
X92473371Y-103436591D02*
X92568609Y-103388972D01*
X92568609Y-103388972D02*
X92663847Y-103388972D01*
X92663847Y-103388972D02*
X92759085Y-103865162D01*
X92425752Y-103103257D02*
X92425752Y-102722305D01*
X92092419Y-102960400D02*
X92949561Y-102960400D01*
X92949561Y-102960400D02*
X93044800Y-102912781D01*
X93044800Y-102912781D02*
X93092419Y-102817543D01*
X93092419Y-102817543D02*
X93092419Y-102722305D01*
X93092419Y-102246114D02*
X93044800Y-102341352D01*
X93044800Y-102341352D02*
X92997180Y-102388971D01*
X92997180Y-102388971D02*
X92901942Y-102436590D01*
X92901942Y-102436590D02*
X92616228Y-102436590D01*
X92616228Y-102436590D02*
X92520990Y-102388971D01*
X92520990Y-102388971D02*
X92473371Y-102341352D01*
X92473371Y-102341352D02*
X92425752Y-102246114D01*
X92425752Y-102246114D02*
X92425752Y-102103257D01*
X92425752Y-102103257D02*
X92473371Y-102008019D01*
X92473371Y-102008019D02*
X92520990Y-101960400D01*
X92520990Y-101960400D02*
X92616228Y-101912781D01*
X92616228Y-101912781D02*
X92901942Y-101912781D01*
X92901942Y-101912781D02*
X92997180Y-101960400D01*
X92997180Y-101960400D02*
X93044800Y-102008019D01*
X93044800Y-102008019D02*
X93092419Y-102103257D01*
X93092419Y-102103257D02*
X93092419Y-102246114D01*
X93092419Y-101341352D02*
X93044800Y-101436590D01*
X93044800Y-101436590D02*
X92997180Y-101484209D01*
X92997180Y-101484209D02*
X92901942Y-101531828D01*
X92901942Y-101531828D02*
X92616228Y-101531828D01*
X92616228Y-101531828D02*
X92520990Y-101484209D01*
X92520990Y-101484209D02*
X92473371Y-101436590D01*
X92473371Y-101436590D02*
X92425752Y-101341352D01*
X92425752Y-101341352D02*
X92425752Y-101198495D01*
X92425752Y-101198495D02*
X92473371Y-101103257D01*
X92473371Y-101103257D02*
X92520990Y-101055638D01*
X92520990Y-101055638D02*
X92616228Y-101008019D01*
X92616228Y-101008019D02*
X92901942Y-101008019D01*
X92901942Y-101008019D02*
X92997180Y-101055638D01*
X92997180Y-101055638D02*
X93044800Y-101103257D01*
X93044800Y-101103257D02*
X93092419Y-101198495D01*
X93092419Y-101198495D02*
X93092419Y-101341352D01*
X92425752Y-100722304D02*
X92425752Y-100341352D01*
X92092419Y-100579447D02*
X92949561Y-100579447D01*
X92949561Y-100579447D02*
X93044800Y-100531828D01*
X93044800Y-100531828D02*
X93092419Y-100436590D01*
X93092419Y-100436590D02*
X93092419Y-100341352D01*
X93092419Y-100008018D02*
X92092419Y-100008018D01*
X93092419Y-99579447D02*
X92568609Y-99579447D01*
X92568609Y-99579447D02*
X92473371Y-99627066D01*
X92473371Y-99627066D02*
X92425752Y-99722304D01*
X92425752Y-99722304D02*
X92425752Y-99865161D01*
X92425752Y-99865161D02*
X92473371Y-99960399D01*
X92473371Y-99960399D02*
X92520990Y-100008018D01*
X134823884Y-98362419D02*
X134823884Y-97362419D01*
X134823884Y-97362419D02*
X135204836Y-97362419D01*
X135204836Y-97362419D02*
X135300074Y-97410038D01*
X135300074Y-97410038D02*
X135347693Y-97457657D01*
X135347693Y-97457657D02*
X135395312Y-97552895D01*
X135395312Y-97552895D02*
X135395312Y-97695752D01*
X135395312Y-97695752D02*
X135347693Y-97790990D01*
X135347693Y-97790990D02*
X135300074Y-97838609D01*
X135300074Y-97838609D02*
X135204836Y-97886228D01*
X135204836Y-97886228D02*
X134823884Y-97886228D01*
X135823884Y-98362419D02*
X135823884Y-97695752D01*
X135823884Y-97886228D02*
X135871503Y-97790990D01*
X135871503Y-97790990D02*
X135919122Y-97743371D01*
X135919122Y-97743371D02*
X136014360Y-97695752D01*
X136014360Y-97695752D02*
X136109598Y-97695752D01*
X136585789Y-98362419D02*
X136490551Y-98314800D01*
X136490551Y-98314800D02*
X136442932Y-98267180D01*
X136442932Y-98267180D02*
X136395313Y-98171942D01*
X136395313Y-98171942D02*
X136395313Y-97886228D01*
X136395313Y-97886228D02*
X136442932Y-97790990D01*
X136442932Y-97790990D02*
X136490551Y-97743371D01*
X136490551Y-97743371D02*
X136585789Y-97695752D01*
X136585789Y-97695752D02*
X136728646Y-97695752D01*
X136728646Y-97695752D02*
X136823884Y-97743371D01*
X136823884Y-97743371D02*
X136871503Y-97790990D01*
X136871503Y-97790990D02*
X136919122Y-97886228D01*
X136919122Y-97886228D02*
X136919122Y-98171942D01*
X136919122Y-98171942D02*
X136871503Y-98267180D01*
X136871503Y-98267180D02*
X136823884Y-98314800D01*
X136823884Y-98314800D02*
X136728646Y-98362419D01*
X136728646Y-98362419D02*
X136585789Y-98362419D01*
X137776265Y-97695752D02*
X137776265Y-98505276D01*
X137776265Y-98505276D02*
X137728646Y-98600514D01*
X137728646Y-98600514D02*
X137681027Y-98648133D01*
X137681027Y-98648133D02*
X137585789Y-98695752D01*
X137585789Y-98695752D02*
X137442932Y-98695752D01*
X137442932Y-98695752D02*
X137347694Y-98648133D01*
X137776265Y-98314800D02*
X137681027Y-98362419D01*
X137681027Y-98362419D02*
X137490551Y-98362419D01*
X137490551Y-98362419D02*
X137395313Y-98314800D01*
X137395313Y-98314800D02*
X137347694Y-98267180D01*
X137347694Y-98267180D02*
X137300075Y-98171942D01*
X137300075Y-98171942D02*
X137300075Y-97886228D01*
X137300075Y-97886228D02*
X137347694Y-97790990D01*
X137347694Y-97790990D02*
X137395313Y-97743371D01*
X137395313Y-97743371D02*
X137490551Y-97695752D01*
X137490551Y-97695752D02*
X137681027Y-97695752D01*
X137681027Y-97695752D02*
X137776265Y-97743371D01*
X138252456Y-98362419D02*
X138252456Y-97695752D01*
X138252456Y-97886228D02*
X138300075Y-97790990D01*
X138300075Y-97790990D02*
X138347694Y-97743371D01*
X138347694Y-97743371D02*
X138442932Y-97695752D01*
X138442932Y-97695752D02*
X138538170Y-97695752D01*
X139300075Y-98362419D02*
X139300075Y-97838609D01*
X139300075Y-97838609D02*
X139252456Y-97743371D01*
X139252456Y-97743371D02*
X139157218Y-97695752D01*
X139157218Y-97695752D02*
X138966742Y-97695752D01*
X138966742Y-97695752D02*
X138871504Y-97743371D01*
X139300075Y-98314800D02*
X139204837Y-98362419D01*
X139204837Y-98362419D02*
X138966742Y-98362419D01*
X138966742Y-98362419D02*
X138871504Y-98314800D01*
X138871504Y-98314800D02*
X138823885Y-98219561D01*
X138823885Y-98219561D02*
X138823885Y-98124323D01*
X138823885Y-98124323D02*
X138871504Y-98029085D01*
X138871504Y-98029085D02*
X138966742Y-97981466D01*
X138966742Y-97981466D02*
X139204837Y-97981466D01*
X139204837Y-97981466D02*
X139300075Y-97933847D01*
X139776266Y-98362419D02*
X139776266Y-97695752D01*
X139776266Y-97790990D02*
X139823885Y-97743371D01*
X139823885Y-97743371D02*
X139919123Y-97695752D01*
X139919123Y-97695752D02*
X140061980Y-97695752D01*
X140061980Y-97695752D02*
X140157218Y-97743371D01*
X140157218Y-97743371D02*
X140204837Y-97838609D01*
X140204837Y-97838609D02*
X140204837Y-98362419D01*
X140204837Y-97838609D02*
X140252456Y-97743371D01*
X140252456Y-97743371D02*
X140347694Y-97695752D01*
X140347694Y-97695752D02*
X140490551Y-97695752D01*
X140490551Y-97695752D02*
X140585790Y-97743371D01*
X140585790Y-97743371D02*
X140633409Y-97838609D01*
X140633409Y-97838609D02*
X140633409Y-98362419D01*
X141109599Y-98362419D02*
X141109599Y-97695752D01*
X141109599Y-97790990D02*
X141157218Y-97743371D01*
X141157218Y-97743371D02*
X141252456Y-97695752D01*
X141252456Y-97695752D02*
X141395313Y-97695752D01*
X141395313Y-97695752D02*
X141490551Y-97743371D01*
X141490551Y-97743371D02*
X141538170Y-97838609D01*
X141538170Y-97838609D02*
X141538170Y-98362419D01*
X141538170Y-97838609D02*
X141585789Y-97743371D01*
X141585789Y-97743371D02*
X141681027Y-97695752D01*
X141681027Y-97695752D02*
X141823884Y-97695752D01*
X141823884Y-97695752D02*
X141919123Y-97743371D01*
X141919123Y-97743371D02*
X141966742Y-97838609D01*
X141966742Y-97838609D02*
X141966742Y-98362419D01*
X142442932Y-98362419D02*
X142442932Y-97695752D01*
X142442932Y-97362419D02*
X142395313Y-97410038D01*
X142395313Y-97410038D02*
X142442932Y-97457657D01*
X142442932Y-97457657D02*
X142490551Y-97410038D01*
X142490551Y-97410038D02*
X142442932Y-97362419D01*
X142442932Y-97362419D02*
X142442932Y-97457657D01*
X142919122Y-97695752D02*
X142919122Y-98362419D01*
X142919122Y-97790990D02*
X142966741Y-97743371D01*
X142966741Y-97743371D02*
X143061979Y-97695752D01*
X143061979Y-97695752D02*
X143204836Y-97695752D01*
X143204836Y-97695752D02*
X143300074Y-97743371D01*
X143300074Y-97743371D02*
X143347693Y-97838609D01*
X143347693Y-97838609D02*
X143347693Y-98362419D01*
X144252455Y-97695752D02*
X144252455Y-98505276D01*
X144252455Y-98505276D02*
X144204836Y-98600514D01*
X144204836Y-98600514D02*
X144157217Y-98648133D01*
X144157217Y-98648133D02*
X144061979Y-98695752D01*
X144061979Y-98695752D02*
X143919122Y-98695752D01*
X143919122Y-98695752D02*
X143823884Y-98648133D01*
X144252455Y-98314800D02*
X144157217Y-98362419D01*
X144157217Y-98362419D02*
X143966741Y-98362419D01*
X143966741Y-98362419D02*
X143871503Y-98314800D01*
X143871503Y-98314800D02*
X143823884Y-98267180D01*
X143823884Y-98267180D02*
X143776265Y-98171942D01*
X143776265Y-98171942D02*
X143776265Y-97886228D01*
X143776265Y-97886228D02*
X143823884Y-97790990D01*
X143823884Y-97790990D02*
X143871503Y-97743371D01*
X143871503Y-97743371D02*
X143966741Y-97695752D01*
X143966741Y-97695752D02*
X144157217Y-97695752D01*
X144157217Y-97695752D02*
X144252455Y-97743371D01*
X145490551Y-98362419D02*
X145490551Y-97362419D01*
X145490551Y-97362419D02*
X145871503Y-97362419D01*
X145871503Y-97362419D02*
X145966741Y-97410038D01*
X145966741Y-97410038D02*
X146014360Y-97457657D01*
X146014360Y-97457657D02*
X146061979Y-97552895D01*
X146061979Y-97552895D02*
X146061979Y-97695752D01*
X146061979Y-97695752D02*
X146014360Y-97790990D01*
X146014360Y-97790990D02*
X145966741Y-97838609D01*
X145966741Y-97838609D02*
X145871503Y-97886228D01*
X145871503Y-97886228D02*
X145490551Y-97886228D01*
X146490551Y-98362419D02*
X146490551Y-97695752D01*
X146490551Y-97362419D02*
X146442932Y-97410038D01*
X146442932Y-97410038D02*
X146490551Y-97457657D01*
X146490551Y-97457657D02*
X146538170Y-97410038D01*
X146538170Y-97410038D02*
X146490551Y-97362419D01*
X146490551Y-97362419D02*
X146490551Y-97457657D01*
X146966741Y-97695752D02*
X146966741Y-98362419D01*
X146966741Y-97790990D02*
X147014360Y-97743371D01*
X147014360Y-97743371D02*
X147109598Y-97695752D01*
X147109598Y-97695752D02*
X147252455Y-97695752D01*
X147252455Y-97695752D02*
X147347693Y-97743371D01*
X147347693Y-97743371D02*
X147395312Y-97838609D01*
X147395312Y-97838609D02*
X147395312Y-98362419D01*
X147823884Y-98314800D02*
X147919122Y-98362419D01*
X147919122Y-98362419D02*
X148109598Y-98362419D01*
X148109598Y-98362419D02*
X148204836Y-98314800D01*
X148204836Y-98314800D02*
X148252455Y-98219561D01*
X148252455Y-98219561D02*
X148252455Y-98171942D01*
X148252455Y-98171942D02*
X148204836Y-98076704D01*
X148204836Y-98076704D02*
X148109598Y-98029085D01*
X148109598Y-98029085D02*
X147966741Y-98029085D01*
X147966741Y-98029085D02*
X147871503Y-97981466D01*
X147871503Y-97981466D02*
X147823884Y-97886228D01*
X147823884Y-97886228D02*
X147823884Y-97838609D01*
X147823884Y-97838609D02*
X147871503Y-97743371D01*
X147871503Y-97743371D02*
X147966741Y-97695752D01*
X147966741Y-97695752D02*
X148109598Y-97695752D01*
X148109598Y-97695752D02*
X148204836Y-97743371D01*
X90415200Y-117146265D02*
X90367580Y-117289122D01*
X90367580Y-117289122D02*
X90367580Y-117527217D01*
X90367580Y-117527217D02*
X90415200Y-117622455D01*
X90415200Y-117622455D02*
X90462819Y-117670074D01*
X90462819Y-117670074D02*
X90558057Y-117717693D01*
X90558057Y-117717693D02*
X90653295Y-117717693D01*
X90653295Y-117717693D02*
X90748533Y-117670074D01*
X90748533Y-117670074D02*
X90796152Y-117622455D01*
X90796152Y-117622455D02*
X90843771Y-117527217D01*
X90843771Y-117527217D02*
X90891390Y-117336741D01*
X90891390Y-117336741D02*
X90939009Y-117241503D01*
X90939009Y-117241503D02*
X90986628Y-117193884D01*
X90986628Y-117193884D02*
X91081866Y-117146265D01*
X91081866Y-117146265D02*
X91177104Y-117146265D01*
X91177104Y-117146265D02*
X91272342Y-117193884D01*
X91272342Y-117193884D02*
X91319961Y-117241503D01*
X91319961Y-117241503D02*
X91367580Y-117336741D01*
X91367580Y-117336741D02*
X91367580Y-117574836D01*
X91367580Y-117574836D02*
X91319961Y-117717693D01*
X90367580Y-118146265D02*
X91367580Y-118146265D01*
X91367580Y-118146265D02*
X91367580Y-118384360D01*
X91367580Y-118384360D02*
X91319961Y-118527217D01*
X91319961Y-118527217D02*
X91224723Y-118622455D01*
X91224723Y-118622455D02*
X91129485Y-118670074D01*
X91129485Y-118670074D02*
X90939009Y-118717693D01*
X90939009Y-118717693D02*
X90796152Y-118717693D01*
X90796152Y-118717693D02*
X90605676Y-118670074D01*
X90605676Y-118670074D02*
X90510438Y-118622455D01*
X90510438Y-118622455D02*
X90415200Y-118527217D01*
X90415200Y-118527217D02*
X90367580Y-118384360D01*
X90367580Y-118384360D02*
X90367580Y-118146265D01*
X90653295Y-119098646D02*
X90653295Y-119574836D01*
X90367580Y-119003408D02*
X91367580Y-119336741D01*
X91367580Y-119336741D02*
X90367580Y-119670074D01*
X112087580Y-104111027D02*
X112087580Y-104682455D01*
X111087580Y-104396741D02*
X112087580Y-104396741D01*
X112087580Y-104920551D02*
X111087580Y-105587217D01*
X112087580Y-105587217D02*
X111087580Y-104920551D01*
X121153884Y-98351466D02*
X121915789Y-98351466D01*
X121534836Y-98732419D02*
X121534836Y-97970514D01*
X150417217Y-143518609D02*
X150560074Y-143566228D01*
X150560074Y-143566228D02*
X150607693Y-143613847D01*
X150607693Y-143613847D02*
X150655312Y-143709085D01*
X150655312Y-143709085D02*
X150655312Y-143851942D01*
X150655312Y-143851942D02*
X150607693Y-143947180D01*
X150607693Y-143947180D02*
X150560074Y-143994800D01*
X150560074Y-143994800D02*
X150464836Y-144042419D01*
X150464836Y-144042419D02*
X150083884Y-144042419D01*
X150083884Y-144042419D02*
X150083884Y-143042419D01*
X150083884Y-143042419D02*
X150417217Y-143042419D01*
X150417217Y-143042419D02*
X150512455Y-143090038D01*
X150512455Y-143090038D02*
X150560074Y-143137657D01*
X150560074Y-143137657D02*
X150607693Y-143232895D01*
X150607693Y-143232895D02*
X150607693Y-143328133D01*
X150607693Y-143328133D02*
X150560074Y-143423371D01*
X150560074Y-143423371D02*
X150512455Y-143470990D01*
X150512455Y-143470990D02*
X150417217Y-143518609D01*
X150417217Y-143518609D02*
X150083884Y-143518609D01*
X151274360Y-143042419D02*
X151464836Y-143042419D01*
X151464836Y-143042419D02*
X151560074Y-143090038D01*
X151560074Y-143090038D02*
X151655312Y-143185276D01*
X151655312Y-143185276D02*
X151702931Y-143375752D01*
X151702931Y-143375752D02*
X151702931Y-143709085D01*
X151702931Y-143709085D02*
X151655312Y-143899561D01*
X151655312Y-143899561D02*
X151560074Y-143994800D01*
X151560074Y-143994800D02*
X151464836Y-144042419D01*
X151464836Y-144042419D02*
X151274360Y-144042419D01*
X151274360Y-144042419D02*
X151179122Y-143994800D01*
X151179122Y-143994800D02*
X151083884Y-143899561D01*
X151083884Y-143899561D02*
X151036265Y-143709085D01*
X151036265Y-143709085D02*
X151036265Y-143375752D01*
X151036265Y-143375752D02*
X151083884Y-143185276D01*
X151083884Y-143185276D02*
X151179122Y-143090038D01*
X151179122Y-143090038D02*
X151274360Y-143042419D01*
X152321979Y-143042419D02*
X152512455Y-143042419D01*
X152512455Y-143042419D02*
X152607693Y-143090038D01*
X152607693Y-143090038D02*
X152702931Y-143185276D01*
X152702931Y-143185276D02*
X152750550Y-143375752D01*
X152750550Y-143375752D02*
X152750550Y-143709085D01*
X152750550Y-143709085D02*
X152702931Y-143899561D01*
X152702931Y-143899561D02*
X152607693Y-143994800D01*
X152607693Y-143994800D02*
X152512455Y-144042419D01*
X152512455Y-144042419D02*
X152321979Y-144042419D01*
X152321979Y-144042419D02*
X152226741Y-143994800D01*
X152226741Y-143994800D02*
X152131503Y-143899561D01*
X152131503Y-143899561D02*
X152083884Y-143709085D01*
X152083884Y-143709085D02*
X152083884Y-143375752D01*
X152083884Y-143375752D02*
X152131503Y-143185276D01*
X152131503Y-143185276D02*
X152226741Y-143090038D01*
X152226741Y-143090038D02*
X152321979Y-143042419D01*
X153036265Y-143042419D02*
X153607693Y-143042419D01*
X153321979Y-144042419D02*
X153321979Y-143042419D01*
D11*
X127087200Y-147918332D02*
X127134819Y-147775475D01*
X127134819Y-147775475D02*
X127134819Y-147537380D01*
X127134819Y-147537380D02*
X127087200Y-147442142D01*
X127087200Y-147442142D02*
X127039580Y-147394523D01*
X127039580Y-147394523D02*
X126944342Y-147346904D01*
X126944342Y-147346904D02*
X126849104Y-147346904D01*
X126849104Y-147346904D02*
X126753866Y-147394523D01*
X126753866Y-147394523D02*
X126706247Y-147442142D01*
X126706247Y-147442142D02*
X126658628Y-147537380D01*
X126658628Y-147537380D02*
X126611009Y-147727856D01*
X126611009Y-147727856D02*
X126563390Y-147823094D01*
X126563390Y-147823094D02*
X126515771Y-147870713D01*
X126515771Y-147870713D02*
X126420533Y-147918332D01*
X126420533Y-147918332D02*
X126325295Y-147918332D01*
X126325295Y-147918332D02*
X126230057Y-147870713D01*
X126230057Y-147870713D02*
X126182438Y-147823094D01*
X126182438Y-147823094D02*
X126134819Y-147727856D01*
X126134819Y-147727856D02*
X126134819Y-147489761D01*
X126134819Y-147489761D02*
X126182438Y-147346904D01*
X126134819Y-147013570D02*
X127134819Y-146775475D01*
X127134819Y-146775475D02*
X126420533Y-146584999D01*
X126420533Y-146584999D02*
X127134819Y-146394523D01*
X127134819Y-146394523D02*
X126134819Y-146156428D01*
X126468152Y-145346904D02*
X127134819Y-145346904D01*
X126087200Y-145584999D02*
X126801485Y-145823094D01*
X126801485Y-145823094D02*
X126801485Y-145204047D01*
X127443333Y-137364819D02*
X127110000Y-136888628D01*
X126871905Y-137364819D02*
X126871905Y-136364819D01*
X126871905Y-136364819D02*
X127252857Y-136364819D01*
X127252857Y-136364819D02*
X127348095Y-136412438D01*
X127348095Y-136412438D02*
X127395714Y-136460057D01*
X127395714Y-136460057D02*
X127443333Y-136555295D01*
X127443333Y-136555295D02*
X127443333Y-136698152D01*
X127443333Y-136698152D02*
X127395714Y-136793390D01*
X127395714Y-136793390D02*
X127348095Y-136841009D01*
X127348095Y-136841009D02*
X127252857Y-136888628D01*
X127252857Y-136888628D02*
X126871905Y-136888628D01*
X127776667Y-136364819D02*
X128443333Y-136364819D01*
X128443333Y-136364819D02*
X128014762Y-137364819D01*
X79613333Y-136744819D02*
X79280000Y-136268628D01*
X79041905Y-136744819D02*
X79041905Y-135744819D01*
X79041905Y-135744819D02*
X79422857Y-135744819D01*
X79422857Y-135744819D02*
X79518095Y-135792438D01*
X79518095Y-135792438D02*
X79565714Y-135840057D01*
X79565714Y-135840057D02*
X79613333Y-135935295D01*
X79613333Y-135935295D02*
X79613333Y-136078152D01*
X79613333Y-136078152D02*
X79565714Y-136173390D01*
X79565714Y-136173390D02*
X79518095Y-136221009D01*
X79518095Y-136221009D02*
X79422857Y-136268628D01*
X79422857Y-136268628D02*
X79041905Y-136268628D01*
X80565714Y-136744819D02*
X79994286Y-136744819D01*
X80280000Y-136744819D02*
X80280000Y-135744819D01*
X80280000Y-135744819D02*
X80184762Y-135887676D01*
X80184762Y-135887676D02*
X80089524Y-135982914D01*
X80089524Y-135982914D02*
X79994286Y-136030533D01*
X87418095Y-111616819D02*
X87989523Y-111616819D01*
X87703809Y-112616819D02*
X87703809Y-111616819D01*
X88322857Y-112616819D02*
X88322857Y-111616819D01*
X88322857Y-111616819D02*
X88703809Y-111616819D01*
X88703809Y-111616819D02*
X88799047Y-111664438D01*
X88799047Y-111664438D02*
X88846666Y-111712057D01*
X88846666Y-111712057D02*
X88894285Y-111807295D01*
X88894285Y-111807295D02*
X88894285Y-111950152D01*
X88894285Y-111950152D02*
X88846666Y-112045390D01*
X88846666Y-112045390D02*
X88799047Y-112093009D01*
X88799047Y-112093009D02*
X88703809Y-112140628D01*
X88703809Y-112140628D02*
X88322857Y-112140628D01*
X89227619Y-111616819D02*
X89894285Y-111616819D01*
X89894285Y-111616819D02*
X89465714Y-112616819D01*
X122108095Y-139796819D02*
X122679523Y-139796819D01*
X122393809Y-140796819D02*
X122393809Y-139796819D01*
X123012857Y-140796819D02*
X123012857Y-139796819D01*
X123012857Y-139796819D02*
X123393809Y-139796819D01*
X123393809Y-139796819D02*
X123489047Y-139844438D01*
X123489047Y-139844438D02*
X123536666Y-139892057D01*
X123536666Y-139892057D02*
X123584285Y-139987295D01*
X123584285Y-139987295D02*
X123584285Y-140130152D01*
X123584285Y-140130152D02*
X123536666Y-140225390D01*
X123536666Y-140225390D02*
X123489047Y-140273009D01*
X123489047Y-140273009D02*
X123393809Y-140320628D01*
X123393809Y-140320628D02*
X123012857Y-140320628D01*
X123917619Y-139796819D02*
X124536666Y-139796819D01*
X124536666Y-139796819D02*
X124203333Y-140177771D01*
X124203333Y-140177771D02*
X124346190Y-140177771D01*
X124346190Y-140177771D02*
X124441428Y-140225390D01*
X124441428Y-140225390D02*
X124489047Y-140273009D01*
X124489047Y-140273009D02*
X124536666Y-140368247D01*
X124536666Y-140368247D02*
X124536666Y-140606342D01*
X124536666Y-140606342D02*
X124489047Y-140701580D01*
X124489047Y-140701580D02*
X124441428Y-140749200D01*
X124441428Y-140749200D02*
X124346190Y-140796819D01*
X124346190Y-140796819D02*
X124060476Y-140796819D01*
X124060476Y-140796819D02*
X123965238Y-140749200D01*
X123965238Y-140749200D02*
X123917619Y-140701580D01*
X99996666Y-95734819D02*
X99996666Y-96449104D01*
X99996666Y-96449104D02*
X99949047Y-96591961D01*
X99949047Y-96591961D02*
X99853809Y-96687200D01*
X99853809Y-96687200D02*
X99710952Y-96734819D01*
X99710952Y-96734819D02*
X99615714Y-96734819D01*
X100996666Y-96734819D02*
X100425238Y-96734819D01*
X100710952Y-96734819D02*
X100710952Y-95734819D01*
X100710952Y-95734819D02*
X100615714Y-95877676D01*
X100615714Y-95877676D02*
X100520476Y-95972914D01*
X100520476Y-95972914D02*
X100425238Y-96020533D01*
X146078095Y-103356819D02*
X146649523Y-103356819D01*
X146363809Y-104356819D02*
X146363809Y-103356819D01*
X146982857Y-104356819D02*
X146982857Y-103356819D01*
X146982857Y-103356819D02*
X147363809Y-103356819D01*
X147363809Y-103356819D02*
X147459047Y-103404438D01*
X147459047Y-103404438D02*
X147506666Y-103452057D01*
X147506666Y-103452057D02*
X147554285Y-103547295D01*
X147554285Y-103547295D02*
X147554285Y-103690152D01*
X147554285Y-103690152D02*
X147506666Y-103785390D01*
X147506666Y-103785390D02*
X147459047Y-103833009D01*
X147459047Y-103833009D02*
X147363809Y-103880628D01*
X147363809Y-103880628D02*
X146982857Y-103880628D01*
X148506666Y-104356819D02*
X147935238Y-104356819D01*
X148220952Y-104356819D02*
X148220952Y-103356819D01*
X148220952Y-103356819D02*
X148125714Y-103499676D01*
X148125714Y-103499676D02*
X148030476Y-103594914D01*
X148030476Y-103594914D02*
X147935238Y-103642533D01*
X134459819Y-101188333D02*
X135174104Y-101188333D01*
X135174104Y-101188333D02*
X135316961Y-101235952D01*
X135316961Y-101235952D02*
X135412200Y-101331190D01*
X135412200Y-101331190D02*
X135459819Y-101474047D01*
X135459819Y-101474047D02*
X135459819Y-101569285D01*
X134793152Y-100283571D02*
X135459819Y-100283571D01*
X134412200Y-100521666D02*
X135126485Y-100759761D01*
X135126485Y-100759761D02*
X135126485Y-100140714D01*
X106217080Y-119196666D02*
X106264700Y-119244285D01*
X106264700Y-119244285D02*
X106312319Y-119387142D01*
X106312319Y-119387142D02*
X106312319Y-119482380D01*
X106312319Y-119482380D02*
X106264700Y-119625237D01*
X106264700Y-119625237D02*
X106169461Y-119720475D01*
X106169461Y-119720475D02*
X106074223Y-119768094D01*
X106074223Y-119768094D02*
X105883747Y-119815713D01*
X105883747Y-119815713D02*
X105740890Y-119815713D01*
X105740890Y-119815713D02*
X105550414Y-119768094D01*
X105550414Y-119768094D02*
X105455176Y-119720475D01*
X105455176Y-119720475D02*
X105359938Y-119625237D01*
X105359938Y-119625237D02*
X105312319Y-119482380D01*
X105312319Y-119482380D02*
X105312319Y-119387142D01*
X105312319Y-119387142D02*
X105359938Y-119244285D01*
X105359938Y-119244285D02*
X105407557Y-119196666D01*
X105645652Y-118339523D02*
X106312319Y-118339523D01*
X105264700Y-118577618D02*
X105978985Y-118815713D01*
X105978985Y-118815713D02*
X105978985Y-118196666D01*
X87498095Y-116246819D02*
X88069523Y-116246819D01*
X87783809Y-117246819D02*
X87783809Y-116246819D01*
X88402857Y-117246819D02*
X88402857Y-116246819D01*
X88402857Y-116246819D02*
X88783809Y-116246819D01*
X88783809Y-116246819D02*
X88879047Y-116294438D01*
X88879047Y-116294438D02*
X88926666Y-116342057D01*
X88926666Y-116342057D02*
X88974285Y-116437295D01*
X88974285Y-116437295D02*
X88974285Y-116580152D01*
X88974285Y-116580152D02*
X88926666Y-116675390D01*
X88926666Y-116675390D02*
X88879047Y-116723009D01*
X88879047Y-116723009D02*
X88783809Y-116770628D01*
X88783809Y-116770628D02*
X88402857Y-116770628D01*
X89831428Y-116246819D02*
X89640952Y-116246819D01*
X89640952Y-116246819D02*
X89545714Y-116294438D01*
X89545714Y-116294438D02*
X89498095Y-116342057D01*
X89498095Y-116342057D02*
X89402857Y-116484914D01*
X89402857Y-116484914D02*
X89355238Y-116675390D01*
X89355238Y-116675390D02*
X89355238Y-117056342D01*
X89355238Y-117056342D02*
X89402857Y-117151580D01*
X89402857Y-117151580D02*
X89450476Y-117199200D01*
X89450476Y-117199200D02*
X89545714Y-117246819D01*
X89545714Y-117246819D02*
X89736190Y-117246819D01*
X89736190Y-117246819D02*
X89831428Y-117199200D01*
X89831428Y-117199200D02*
X89879047Y-117151580D01*
X89879047Y-117151580D02*
X89926666Y-117056342D01*
X89926666Y-117056342D02*
X89926666Y-116818247D01*
X89926666Y-116818247D02*
X89879047Y-116723009D01*
X89879047Y-116723009D02*
X89831428Y-116675390D01*
X89831428Y-116675390D02*
X89736190Y-116627771D01*
X89736190Y-116627771D02*
X89545714Y-116627771D01*
X89545714Y-116627771D02*
X89450476Y-116675390D01*
X89450476Y-116675390D02*
X89402857Y-116723009D01*
X89402857Y-116723009D02*
X89355238Y-116818247D01*
X95257080Y-124256666D02*
X95304700Y-124304285D01*
X95304700Y-124304285D02*
X95352319Y-124447142D01*
X95352319Y-124447142D02*
X95352319Y-124542380D01*
X95352319Y-124542380D02*
X95304700Y-124685237D01*
X95304700Y-124685237D02*
X95209461Y-124780475D01*
X95209461Y-124780475D02*
X95114223Y-124828094D01*
X95114223Y-124828094D02*
X94923747Y-124875713D01*
X94923747Y-124875713D02*
X94780890Y-124875713D01*
X94780890Y-124875713D02*
X94590414Y-124828094D01*
X94590414Y-124828094D02*
X94495176Y-124780475D01*
X94495176Y-124780475D02*
X94399938Y-124685237D01*
X94399938Y-124685237D02*
X94352319Y-124542380D01*
X94352319Y-124542380D02*
X94352319Y-124447142D01*
X94352319Y-124447142D02*
X94399938Y-124304285D01*
X94399938Y-124304285D02*
X94447557Y-124256666D01*
X94447557Y-123875713D02*
X94399938Y-123828094D01*
X94399938Y-123828094D02*
X94352319Y-123732856D01*
X94352319Y-123732856D02*
X94352319Y-123494761D01*
X94352319Y-123494761D02*
X94399938Y-123399523D01*
X94399938Y-123399523D02*
X94447557Y-123351904D01*
X94447557Y-123351904D02*
X94542795Y-123304285D01*
X94542795Y-123304285D02*
X94638033Y-123304285D01*
X94638033Y-123304285D02*
X94780890Y-123351904D01*
X94780890Y-123351904D02*
X95352319Y-123923332D01*
X95352319Y-123923332D02*
X95352319Y-123304285D01*
X137178095Y-111994819D02*
X137178095Y-112804342D01*
X137178095Y-112804342D02*
X137225714Y-112899580D01*
X137225714Y-112899580D02*
X137273333Y-112947200D01*
X137273333Y-112947200D02*
X137368571Y-112994819D01*
X137368571Y-112994819D02*
X137559047Y-112994819D01*
X137559047Y-112994819D02*
X137654285Y-112947200D01*
X137654285Y-112947200D02*
X137701904Y-112899580D01*
X137701904Y-112899580D02*
X137749523Y-112804342D01*
X137749523Y-112804342D02*
X137749523Y-111994819D01*
X138749523Y-112994819D02*
X138178095Y-112994819D01*
X138463809Y-112994819D02*
X138463809Y-111994819D01*
X138463809Y-111994819D02*
X138368571Y-112137676D01*
X138368571Y-112137676D02*
X138273333Y-112232914D01*
X138273333Y-112232914D02*
X138178095Y-112280533D01*
X107483333Y-136314819D02*
X107150000Y-135838628D01*
X106911905Y-136314819D02*
X106911905Y-135314819D01*
X106911905Y-135314819D02*
X107292857Y-135314819D01*
X107292857Y-135314819D02*
X107388095Y-135362438D01*
X107388095Y-135362438D02*
X107435714Y-135410057D01*
X107435714Y-135410057D02*
X107483333Y-135505295D01*
X107483333Y-135505295D02*
X107483333Y-135648152D01*
X107483333Y-135648152D02*
X107435714Y-135743390D01*
X107435714Y-135743390D02*
X107388095Y-135791009D01*
X107388095Y-135791009D02*
X107292857Y-135838628D01*
X107292857Y-135838628D02*
X106911905Y-135838628D01*
X108388095Y-135314819D02*
X107911905Y-135314819D01*
X107911905Y-135314819D02*
X107864286Y-135791009D01*
X107864286Y-135791009D02*
X107911905Y-135743390D01*
X107911905Y-135743390D02*
X108007143Y-135695771D01*
X108007143Y-135695771D02*
X108245238Y-135695771D01*
X108245238Y-135695771D02*
X108340476Y-135743390D01*
X108340476Y-135743390D02*
X108388095Y-135791009D01*
X108388095Y-135791009D02*
X108435714Y-135886247D01*
X108435714Y-135886247D02*
X108435714Y-136124342D01*
X108435714Y-136124342D02*
X108388095Y-136219580D01*
X108388095Y-136219580D02*
X108340476Y-136267200D01*
X108340476Y-136267200D02*
X108245238Y-136314819D01*
X108245238Y-136314819D02*
X108007143Y-136314819D01*
X108007143Y-136314819D02*
X107911905Y-136267200D01*
X107911905Y-136267200D02*
X107864286Y-136219580D01*
X114343333Y-136314819D02*
X114010000Y-135838628D01*
X113771905Y-136314819D02*
X113771905Y-135314819D01*
X113771905Y-135314819D02*
X114152857Y-135314819D01*
X114152857Y-135314819D02*
X114248095Y-135362438D01*
X114248095Y-135362438D02*
X114295714Y-135410057D01*
X114295714Y-135410057D02*
X114343333Y-135505295D01*
X114343333Y-135505295D02*
X114343333Y-135648152D01*
X114343333Y-135648152D02*
X114295714Y-135743390D01*
X114295714Y-135743390D02*
X114248095Y-135791009D01*
X114248095Y-135791009D02*
X114152857Y-135838628D01*
X114152857Y-135838628D02*
X113771905Y-135838628D01*
X115200476Y-135314819D02*
X115010000Y-135314819D01*
X115010000Y-135314819D02*
X114914762Y-135362438D01*
X114914762Y-135362438D02*
X114867143Y-135410057D01*
X114867143Y-135410057D02*
X114771905Y-135552914D01*
X114771905Y-135552914D02*
X114724286Y-135743390D01*
X114724286Y-135743390D02*
X114724286Y-136124342D01*
X114724286Y-136124342D02*
X114771905Y-136219580D01*
X114771905Y-136219580D02*
X114819524Y-136267200D01*
X114819524Y-136267200D02*
X114914762Y-136314819D01*
X114914762Y-136314819D02*
X115105238Y-136314819D01*
X115105238Y-136314819D02*
X115200476Y-136267200D01*
X115200476Y-136267200D02*
X115248095Y-136219580D01*
X115248095Y-136219580D02*
X115295714Y-136124342D01*
X115295714Y-136124342D02*
X115295714Y-135886247D01*
X115295714Y-135886247D02*
X115248095Y-135791009D01*
X115248095Y-135791009D02*
X115200476Y-135743390D01*
X115200476Y-135743390D02*
X115105238Y-135695771D01*
X115105238Y-135695771D02*
X114914762Y-135695771D01*
X114914762Y-135695771D02*
X114819524Y-135743390D01*
X114819524Y-135743390D02*
X114771905Y-135791009D01*
X114771905Y-135791009D02*
X114724286Y-135886247D01*
X139257142Y-140574819D02*
X138923809Y-140098628D01*
X138685714Y-140574819D02*
X138685714Y-139574819D01*
X138685714Y-139574819D02*
X139066666Y-139574819D01*
X139066666Y-139574819D02*
X139161904Y-139622438D01*
X139161904Y-139622438D02*
X139209523Y-139670057D01*
X139209523Y-139670057D02*
X139257142Y-139765295D01*
X139257142Y-139765295D02*
X139257142Y-139908152D01*
X139257142Y-139908152D02*
X139209523Y-140003390D01*
X139209523Y-140003390D02*
X139161904Y-140051009D01*
X139161904Y-140051009D02*
X139066666Y-140098628D01*
X139066666Y-140098628D02*
X138685714Y-140098628D01*
X140209523Y-140574819D02*
X139638095Y-140574819D01*
X139923809Y-140574819D02*
X139923809Y-139574819D01*
X139923809Y-139574819D02*
X139828571Y-139717676D01*
X139828571Y-139717676D02*
X139733333Y-139812914D01*
X139733333Y-139812914D02*
X139638095Y-139860533D01*
X141161904Y-140574819D02*
X140590476Y-140574819D01*
X140876190Y-140574819D02*
X140876190Y-139574819D01*
X140876190Y-139574819D02*
X140780952Y-139717676D01*
X140780952Y-139717676D02*
X140685714Y-139812914D01*
X140685714Y-139812914D02*
X140590476Y-139860533D01*
X113459166Y-110901009D02*
X113125833Y-110901009D01*
X113125833Y-111424819D02*
X113125833Y-110424819D01*
X113125833Y-110424819D02*
X113602023Y-110424819D01*
X114506785Y-111424819D02*
X113935357Y-111424819D01*
X114221071Y-111424819D02*
X114221071Y-110424819D01*
X114221071Y-110424819D02*
X114125833Y-110567676D01*
X114125833Y-110567676D02*
X114030595Y-110662914D01*
X114030595Y-110662914D02*
X113935357Y-110710533D01*
X122538732Y-94358779D02*
X122538732Y-95074521D01*
X122538732Y-95074521D02*
X122491016Y-95217669D01*
X122491016Y-95217669D02*
X122395584Y-95313102D01*
X122395584Y-95313102D02*
X122252435Y-95360818D01*
X122252435Y-95360818D02*
X122157003Y-95360818D01*
X122968177Y-94454211D02*
X123015893Y-94406495D01*
X123015893Y-94406495D02*
X123111326Y-94358779D01*
X123111326Y-94358779D02*
X123349906Y-94358779D01*
X123349906Y-94358779D02*
X123445339Y-94406495D01*
X123445339Y-94406495D02*
X123493055Y-94454211D01*
X123493055Y-94454211D02*
X123540771Y-94549643D01*
X123540771Y-94549643D02*
X123540771Y-94645076D01*
X123540771Y-94645076D02*
X123493055Y-94788224D01*
X123493055Y-94788224D02*
X122920461Y-95360818D01*
X122920461Y-95360818D02*
X123540771Y-95360818D01*
X107156905Y-130334819D02*
X107156905Y-129334819D01*
X107156905Y-129334819D02*
X107395000Y-129334819D01*
X107395000Y-129334819D02*
X107537857Y-129382438D01*
X107537857Y-129382438D02*
X107633095Y-129477676D01*
X107633095Y-129477676D02*
X107680714Y-129572914D01*
X107680714Y-129572914D02*
X107728333Y-129763390D01*
X107728333Y-129763390D02*
X107728333Y-129906247D01*
X107728333Y-129906247D02*
X107680714Y-130096723D01*
X107680714Y-130096723D02*
X107633095Y-130191961D01*
X107633095Y-130191961D02*
X107537857Y-130287200D01*
X107537857Y-130287200D02*
X107395000Y-130334819D01*
X107395000Y-130334819D02*
X107156905Y-130334819D01*
X108680714Y-130334819D02*
X108109286Y-130334819D01*
X108395000Y-130334819D02*
X108395000Y-129334819D01*
X108395000Y-129334819D02*
X108299762Y-129477676D01*
X108299762Y-129477676D02*
X108204524Y-129572914D01*
X108204524Y-129572914D02*
X108109286Y-129620533D01*
X103047200Y-147518332D02*
X103094819Y-147375475D01*
X103094819Y-147375475D02*
X103094819Y-147137380D01*
X103094819Y-147137380D02*
X103047200Y-147042142D01*
X103047200Y-147042142D02*
X102999580Y-146994523D01*
X102999580Y-146994523D02*
X102904342Y-146946904D01*
X102904342Y-146946904D02*
X102809104Y-146946904D01*
X102809104Y-146946904D02*
X102713866Y-146994523D01*
X102713866Y-146994523D02*
X102666247Y-147042142D01*
X102666247Y-147042142D02*
X102618628Y-147137380D01*
X102618628Y-147137380D02*
X102571009Y-147327856D01*
X102571009Y-147327856D02*
X102523390Y-147423094D01*
X102523390Y-147423094D02*
X102475771Y-147470713D01*
X102475771Y-147470713D02*
X102380533Y-147518332D01*
X102380533Y-147518332D02*
X102285295Y-147518332D01*
X102285295Y-147518332D02*
X102190057Y-147470713D01*
X102190057Y-147470713D02*
X102142438Y-147423094D01*
X102142438Y-147423094D02*
X102094819Y-147327856D01*
X102094819Y-147327856D02*
X102094819Y-147089761D01*
X102094819Y-147089761D02*
X102142438Y-146946904D01*
X102094819Y-146613570D02*
X103094819Y-146375475D01*
X103094819Y-146375475D02*
X102380533Y-146184999D01*
X102380533Y-146184999D02*
X103094819Y-145994523D01*
X103094819Y-145994523D02*
X102094819Y-145756428D01*
X102094819Y-145470713D02*
X102094819Y-144851666D01*
X102094819Y-144851666D02*
X102475771Y-145184999D01*
X102475771Y-145184999D02*
X102475771Y-145042142D01*
X102475771Y-145042142D02*
X102523390Y-144946904D01*
X102523390Y-144946904D02*
X102571009Y-144899285D01*
X102571009Y-144899285D02*
X102666247Y-144851666D01*
X102666247Y-144851666D02*
X102904342Y-144851666D01*
X102904342Y-144851666D02*
X102999580Y-144899285D01*
X102999580Y-144899285D02*
X103047200Y-144946904D01*
X103047200Y-144946904D02*
X103094819Y-145042142D01*
X103094819Y-145042142D02*
X103094819Y-145327856D01*
X103094819Y-145327856D02*
X103047200Y-145423094D01*
X103047200Y-145423094D02*
X102999580Y-145470713D01*
X85623333Y-136894819D02*
X85290000Y-136418628D01*
X85051905Y-136894819D02*
X85051905Y-135894819D01*
X85051905Y-135894819D02*
X85432857Y-135894819D01*
X85432857Y-135894819D02*
X85528095Y-135942438D01*
X85528095Y-135942438D02*
X85575714Y-135990057D01*
X85575714Y-135990057D02*
X85623333Y-136085295D01*
X85623333Y-136085295D02*
X85623333Y-136228152D01*
X85623333Y-136228152D02*
X85575714Y-136323390D01*
X85575714Y-136323390D02*
X85528095Y-136371009D01*
X85528095Y-136371009D02*
X85432857Y-136418628D01*
X85432857Y-136418628D02*
X85051905Y-136418628D01*
X86004286Y-135990057D02*
X86051905Y-135942438D01*
X86051905Y-135942438D02*
X86147143Y-135894819D01*
X86147143Y-135894819D02*
X86385238Y-135894819D01*
X86385238Y-135894819D02*
X86480476Y-135942438D01*
X86480476Y-135942438D02*
X86528095Y-135990057D01*
X86528095Y-135990057D02*
X86575714Y-136085295D01*
X86575714Y-136085295D02*
X86575714Y-136180533D01*
X86575714Y-136180533D02*
X86528095Y-136323390D01*
X86528095Y-136323390D02*
X85956667Y-136894819D01*
X85956667Y-136894819D02*
X86575714Y-136894819D01*
X108018095Y-98156819D02*
X108589523Y-98156819D01*
X108303809Y-99156819D02*
X108303809Y-98156819D01*
X108922857Y-99156819D02*
X108922857Y-98156819D01*
X108922857Y-98156819D02*
X109303809Y-98156819D01*
X109303809Y-98156819D02*
X109399047Y-98204438D01*
X109399047Y-98204438D02*
X109446666Y-98252057D01*
X109446666Y-98252057D02*
X109494285Y-98347295D01*
X109494285Y-98347295D02*
X109494285Y-98490152D01*
X109494285Y-98490152D02*
X109446666Y-98585390D01*
X109446666Y-98585390D02*
X109399047Y-98633009D01*
X109399047Y-98633009D02*
X109303809Y-98680628D01*
X109303809Y-98680628D02*
X108922857Y-98680628D01*
X110399047Y-98156819D02*
X109922857Y-98156819D01*
X109922857Y-98156819D02*
X109875238Y-98633009D01*
X109875238Y-98633009D02*
X109922857Y-98585390D01*
X109922857Y-98585390D02*
X110018095Y-98537771D01*
X110018095Y-98537771D02*
X110256190Y-98537771D01*
X110256190Y-98537771D02*
X110351428Y-98585390D01*
X110351428Y-98585390D02*
X110399047Y-98633009D01*
X110399047Y-98633009D02*
X110446666Y-98728247D01*
X110446666Y-98728247D02*
X110446666Y-98966342D01*
X110446666Y-98966342D02*
X110399047Y-99061580D01*
X110399047Y-99061580D02*
X110351428Y-99109200D01*
X110351428Y-99109200D02*
X110256190Y-99156819D01*
X110256190Y-99156819D02*
X110018095Y-99156819D01*
X110018095Y-99156819D02*
X109922857Y-99109200D01*
X109922857Y-99109200D02*
X109875238Y-99061580D01*
X140107200Y-148018332D02*
X140154819Y-147875475D01*
X140154819Y-147875475D02*
X140154819Y-147637380D01*
X140154819Y-147637380D02*
X140107200Y-147542142D01*
X140107200Y-147542142D02*
X140059580Y-147494523D01*
X140059580Y-147494523D02*
X139964342Y-147446904D01*
X139964342Y-147446904D02*
X139869104Y-147446904D01*
X139869104Y-147446904D02*
X139773866Y-147494523D01*
X139773866Y-147494523D02*
X139726247Y-147542142D01*
X139726247Y-147542142D02*
X139678628Y-147637380D01*
X139678628Y-147637380D02*
X139631009Y-147827856D01*
X139631009Y-147827856D02*
X139583390Y-147923094D01*
X139583390Y-147923094D02*
X139535771Y-147970713D01*
X139535771Y-147970713D02*
X139440533Y-148018332D01*
X139440533Y-148018332D02*
X139345295Y-148018332D01*
X139345295Y-148018332D02*
X139250057Y-147970713D01*
X139250057Y-147970713D02*
X139202438Y-147923094D01*
X139202438Y-147923094D02*
X139154819Y-147827856D01*
X139154819Y-147827856D02*
X139154819Y-147589761D01*
X139154819Y-147589761D02*
X139202438Y-147446904D01*
X139154819Y-147113570D02*
X140154819Y-146875475D01*
X140154819Y-146875475D02*
X139440533Y-146684999D01*
X139440533Y-146684999D02*
X140154819Y-146494523D01*
X140154819Y-146494523D02*
X139154819Y-146256428D01*
X139154819Y-145399285D02*
X139154819Y-145875475D01*
X139154819Y-145875475D02*
X139631009Y-145923094D01*
X139631009Y-145923094D02*
X139583390Y-145875475D01*
X139583390Y-145875475D02*
X139535771Y-145780237D01*
X139535771Y-145780237D02*
X139535771Y-145542142D01*
X139535771Y-145542142D02*
X139583390Y-145446904D01*
X139583390Y-145446904D02*
X139631009Y-145399285D01*
X139631009Y-145399285D02*
X139726247Y-145351666D01*
X139726247Y-145351666D02*
X139964342Y-145351666D01*
X139964342Y-145351666D02*
X140059580Y-145399285D01*
X140059580Y-145399285D02*
X140107200Y-145446904D01*
X140107200Y-145446904D02*
X140154819Y-145542142D01*
X140154819Y-145542142D02*
X140154819Y-145780237D01*
X140154819Y-145780237D02*
X140107200Y-145875475D01*
X140107200Y-145875475D02*
X140059580Y-145923094D01*
X113907080Y-124406666D02*
X113954700Y-124454285D01*
X113954700Y-124454285D02*
X114002319Y-124597142D01*
X114002319Y-124597142D02*
X114002319Y-124692380D01*
X114002319Y-124692380D02*
X113954700Y-124835237D01*
X113954700Y-124835237D02*
X113859461Y-124930475D01*
X113859461Y-124930475D02*
X113764223Y-124978094D01*
X113764223Y-124978094D02*
X113573747Y-125025713D01*
X113573747Y-125025713D02*
X113430890Y-125025713D01*
X113430890Y-125025713D02*
X113240414Y-124978094D01*
X113240414Y-124978094D02*
X113145176Y-124930475D01*
X113145176Y-124930475D02*
X113049938Y-124835237D01*
X113049938Y-124835237D02*
X113002319Y-124692380D01*
X113002319Y-124692380D02*
X113002319Y-124597142D01*
X113002319Y-124597142D02*
X113049938Y-124454285D01*
X113049938Y-124454285D02*
X113097557Y-124406666D01*
X114002319Y-123454285D02*
X114002319Y-124025713D01*
X114002319Y-123739999D02*
X113002319Y-123739999D01*
X113002319Y-123739999D02*
X113145176Y-123835237D01*
X113145176Y-123835237D02*
X113240414Y-123930475D01*
X113240414Y-123930475D02*
X113288033Y-124025713D01*
X108208095Y-102636819D02*
X108779523Y-102636819D01*
X108493809Y-103636819D02*
X108493809Y-102636819D01*
X109112857Y-103636819D02*
X109112857Y-102636819D01*
X109112857Y-102636819D02*
X109493809Y-102636819D01*
X109493809Y-102636819D02*
X109589047Y-102684438D01*
X109589047Y-102684438D02*
X109636666Y-102732057D01*
X109636666Y-102732057D02*
X109684285Y-102827295D01*
X109684285Y-102827295D02*
X109684285Y-102970152D01*
X109684285Y-102970152D02*
X109636666Y-103065390D01*
X109636666Y-103065390D02*
X109589047Y-103113009D01*
X109589047Y-103113009D02*
X109493809Y-103160628D01*
X109493809Y-103160628D02*
X109112857Y-103160628D01*
X110541428Y-102970152D02*
X110541428Y-103636819D01*
X110303333Y-102589200D02*
X110065238Y-103303485D01*
X110065238Y-103303485D02*
X110684285Y-103303485D01*
X134153333Y-137514819D02*
X133820000Y-137038628D01*
X133581905Y-137514819D02*
X133581905Y-136514819D01*
X133581905Y-136514819D02*
X133962857Y-136514819D01*
X133962857Y-136514819D02*
X134058095Y-136562438D01*
X134058095Y-136562438D02*
X134105714Y-136610057D01*
X134105714Y-136610057D02*
X134153333Y-136705295D01*
X134153333Y-136705295D02*
X134153333Y-136848152D01*
X134153333Y-136848152D02*
X134105714Y-136943390D01*
X134105714Y-136943390D02*
X134058095Y-136991009D01*
X134058095Y-136991009D02*
X133962857Y-137038628D01*
X133962857Y-137038628D02*
X133581905Y-137038628D01*
X134724762Y-136943390D02*
X134629524Y-136895771D01*
X134629524Y-136895771D02*
X134581905Y-136848152D01*
X134581905Y-136848152D02*
X134534286Y-136752914D01*
X134534286Y-136752914D02*
X134534286Y-136705295D01*
X134534286Y-136705295D02*
X134581905Y-136610057D01*
X134581905Y-136610057D02*
X134629524Y-136562438D01*
X134629524Y-136562438D02*
X134724762Y-136514819D01*
X134724762Y-136514819D02*
X134915238Y-136514819D01*
X134915238Y-136514819D02*
X135010476Y-136562438D01*
X135010476Y-136562438D02*
X135058095Y-136610057D01*
X135058095Y-136610057D02*
X135105714Y-136705295D01*
X135105714Y-136705295D02*
X135105714Y-136752914D01*
X135105714Y-136752914D02*
X135058095Y-136848152D01*
X135058095Y-136848152D02*
X135010476Y-136895771D01*
X135010476Y-136895771D02*
X134915238Y-136943390D01*
X134915238Y-136943390D02*
X134724762Y-136943390D01*
X134724762Y-136943390D02*
X134629524Y-136991009D01*
X134629524Y-136991009D02*
X134581905Y-137038628D01*
X134581905Y-137038628D02*
X134534286Y-137133866D01*
X134534286Y-137133866D02*
X134534286Y-137324342D01*
X134534286Y-137324342D02*
X134581905Y-137419580D01*
X134581905Y-137419580D02*
X134629524Y-137467200D01*
X134629524Y-137467200D02*
X134724762Y-137514819D01*
X134724762Y-137514819D02*
X134915238Y-137514819D01*
X134915238Y-137514819D02*
X135010476Y-137467200D01*
X135010476Y-137467200D02*
X135058095Y-137419580D01*
X135058095Y-137419580D02*
X135105714Y-137324342D01*
X135105714Y-137324342D02*
X135105714Y-137133866D01*
X135105714Y-137133866D02*
X135058095Y-137038628D01*
X135058095Y-137038628D02*
X135010476Y-136991009D01*
X135010476Y-136991009D02*
X134915238Y-136943390D01*
X117678095Y-115804819D02*
X117678095Y-116614342D01*
X117678095Y-116614342D02*
X117725714Y-116709580D01*
X117725714Y-116709580D02*
X117773333Y-116757200D01*
X117773333Y-116757200D02*
X117868571Y-116804819D01*
X117868571Y-116804819D02*
X118059047Y-116804819D01*
X118059047Y-116804819D02*
X118154285Y-116757200D01*
X118154285Y-116757200D02*
X118201904Y-116709580D01*
X118201904Y-116709580D02*
X118249523Y-116614342D01*
X118249523Y-116614342D02*
X118249523Y-115804819D01*
X118678095Y-115900057D02*
X118725714Y-115852438D01*
X118725714Y-115852438D02*
X118820952Y-115804819D01*
X118820952Y-115804819D02*
X119059047Y-115804819D01*
X119059047Y-115804819D02*
X119154285Y-115852438D01*
X119154285Y-115852438D02*
X119201904Y-115900057D01*
X119201904Y-115900057D02*
X119249523Y-115995295D01*
X119249523Y-115995295D02*
X119249523Y-116090533D01*
X119249523Y-116090533D02*
X119201904Y-116233390D01*
X119201904Y-116233390D02*
X118630476Y-116804819D01*
X118630476Y-116804819D02*
X119249523Y-116804819D01*
X145717142Y-140574819D02*
X145383809Y-140098628D01*
X145145714Y-140574819D02*
X145145714Y-139574819D01*
X145145714Y-139574819D02*
X145526666Y-139574819D01*
X145526666Y-139574819D02*
X145621904Y-139622438D01*
X145621904Y-139622438D02*
X145669523Y-139670057D01*
X145669523Y-139670057D02*
X145717142Y-139765295D01*
X145717142Y-139765295D02*
X145717142Y-139908152D01*
X145717142Y-139908152D02*
X145669523Y-140003390D01*
X145669523Y-140003390D02*
X145621904Y-140051009D01*
X145621904Y-140051009D02*
X145526666Y-140098628D01*
X145526666Y-140098628D02*
X145145714Y-140098628D01*
X146669523Y-140574819D02*
X146098095Y-140574819D01*
X146383809Y-140574819D02*
X146383809Y-139574819D01*
X146383809Y-139574819D02*
X146288571Y-139717676D01*
X146288571Y-139717676D02*
X146193333Y-139812914D01*
X146193333Y-139812914D02*
X146098095Y-139860533D01*
X147288571Y-139574819D02*
X147383809Y-139574819D01*
X147383809Y-139574819D02*
X147479047Y-139622438D01*
X147479047Y-139622438D02*
X147526666Y-139670057D01*
X147526666Y-139670057D02*
X147574285Y-139765295D01*
X147574285Y-139765295D02*
X147621904Y-139955771D01*
X147621904Y-139955771D02*
X147621904Y-140193866D01*
X147621904Y-140193866D02*
X147574285Y-140384342D01*
X147574285Y-140384342D02*
X147526666Y-140479580D01*
X147526666Y-140479580D02*
X147479047Y-140527200D01*
X147479047Y-140527200D02*
X147383809Y-140574819D01*
X147383809Y-140574819D02*
X147288571Y-140574819D01*
X147288571Y-140574819D02*
X147193333Y-140527200D01*
X147193333Y-140527200D02*
X147145714Y-140479580D01*
X147145714Y-140479580D02*
X147098095Y-140384342D01*
X147098095Y-140384342D02*
X147050476Y-140193866D01*
X147050476Y-140193866D02*
X147050476Y-139955771D01*
X147050476Y-139955771D02*
X147098095Y-139765295D01*
X147098095Y-139765295D02*
X147145714Y-139670057D01*
X147145714Y-139670057D02*
X147193333Y-139622438D01*
X147193333Y-139622438D02*
X147288571Y-139574819D01*
X104879166Y-114631009D02*
X104545833Y-114631009D01*
X104545833Y-115154819D02*
X104545833Y-114154819D01*
X104545833Y-114154819D02*
X105022023Y-114154819D01*
X105355357Y-114250057D02*
X105402976Y-114202438D01*
X105402976Y-114202438D02*
X105498214Y-114154819D01*
X105498214Y-114154819D02*
X105736309Y-114154819D01*
X105736309Y-114154819D02*
X105831547Y-114202438D01*
X105831547Y-114202438D02*
X105879166Y-114250057D01*
X105879166Y-114250057D02*
X105926785Y-114345295D01*
X105926785Y-114345295D02*
X105926785Y-114440533D01*
X105926785Y-114440533D02*
X105879166Y-114583390D01*
X105879166Y-114583390D02*
X105307738Y-115154819D01*
X105307738Y-115154819D02*
X105926785Y-115154819D01*
X114643333Y-133294819D02*
X114310000Y-132818628D01*
X114071905Y-133294819D02*
X114071905Y-132294819D01*
X114071905Y-132294819D02*
X114452857Y-132294819D01*
X114452857Y-132294819D02*
X114548095Y-132342438D01*
X114548095Y-132342438D02*
X114595714Y-132390057D01*
X114595714Y-132390057D02*
X114643333Y-132485295D01*
X114643333Y-132485295D02*
X114643333Y-132628152D01*
X114643333Y-132628152D02*
X114595714Y-132723390D01*
X114595714Y-132723390D02*
X114548095Y-132771009D01*
X114548095Y-132771009D02*
X114452857Y-132818628D01*
X114452857Y-132818628D02*
X114071905Y-132818628D01*
X115119524Y-133294819D02*
X115310000Y-133294819D01*
X115310000Y-133294819D02*
X115405238Y-133247200D01*
X115405238Y-133247200D02*
X115452857Y-133199580D01*
X115452857Y-133199580D02*
X115548095Y-133056723D01*
X115548095Y-133056723D02*
X115595714Y-132866247D01*
X115595714Y-132866247D02*
X115595714Y-132485295D01*
X115595714Y-132485295D02*
X115548095Y-132390057D01*
X115548095Y-132390057D02*
X115500476Y-132342438D01*
X115500476Y-132342438D02*
X115405238Y-132294819D01*
X115405238Y-132294819D02*
X115214762Y-132294819D01*
X115214762Y-132294819D02*
X115119524Y-132342438D01*
X115119524Y-132342438D02*
X115071905Y-132390057D01*
X115071905Y-132390057D02*
X115024286Y-132485295D01*
X115024286Y-132485295D02*
X115024286Y-132723390D01*
X115024286Y-132723390D02*
X115071905Y-132818628D01*
X115071905Y-132818628D02*
X115119524Y-132866247D01*
X115119524Y-132866247D02*
X115214762Y-132913866D01*
X115214762Y-132913866D02*
X115405238Y-132913866D01*
X115405238Y-132913866D02*
X115500476Y-132866247D01*
X115500476Y-132866247D02*
X115548095Y-132818628D01*
X115548095Y-132818628D02*
X115595714Y-132723390D01*
X80107200Y-147718332D02*
X80154819Y-147575475D01*
X80154819Y-147575475D02*
X80154819Y-147337380D01*
X80154819Y-147337380D02*
X80107200Y-147242142D01*
X80107200Y-147242142D02*
X80059580Y-147194523D01*
X80059580Y-147194523D02*
X79964342Y-147146904D01*
X79964342Y-147146904D02*
X79869104Y-147146904D01*
X79869104Y-147146904D02*
X79773866Y-147194523D01*
X79773866Y-147194523D02*
X79726247Y-147242142D01*
X79726247Y-147242142D02*
X79678628Y-147337380D01*
X79678628Y-147337380D02*
X79631009Y-147527856D01*
X79631009Y-147527856D02*
X79583390Y-147623094D01*
X79583390Y-147623094D02*
X79535771Y-147670713D01*
X79535771Y-147670713D02*
X79440533Y-147718332D01*
X79440533Y-147718332D02*
X79345295Y-147718332D01*
X79345295Y-147718332D02*
X79250057Y-147670713D01*
X79250057Y-147670713D02*
X79202438Y-147623094D01*
X79202438Y-147623094D02*
X79154819Y-147527856D01*
X79154819Y-147527856D02*
X79154819Y-147289761D01*
X79154819Y-147289761D02*
X79202438Y-147146904D01*
X79154819Y-146813570D02*
X80154819Y-146575475D01*
X80154819Y-146575475D02*
X79440533Y-146384999D01*
X79440533Y-146384999D02*
X80154819Y-146194523D01*
X80154819Y-146194523D02*
X79154819Y-145956428D01*
X80154819Y-145051666D02*
X80154819Y-145623094D01*
X80154819Y-145337380D02*
X79154819Y-145337380D01*
X79154819Y-145337380D02*
X79297676Y-145432618D01*
X79297676Y-145432618D02*
X79392914Y-145527856D01*
X79392914Y-145527856D02*
X79440533Y-145623094D01*
X92583333Y-136544819D02*
X92250000Y-136068628D01*
X92011905Y-136544819D02*
X92011905Y-135544819D01*
X92011905Y-135544819D02*
X92392857Y-135544819D01*
X92392857Y-135544819D02*
X92488095Y-135592438D01*
X92488095Y-135592438D02*
X92535714Y-135640057D01*
X92535714Y-135640057D02*
X92583333Y-135735295D01*
X92583333Y-135735295D02*
X92583333Y-135878152D01*
X92583333Y-135878152D02*
X92535714Y-135973390D01*
X92535714Y-135973390D02*
X92488095Y-136021009D01*
X92488095Y-136021009D02*
X92392857Y-136068628D01*
X92392857Y-136068628D02*
X92011905Y-136068628D01*
X92916667Y-135544819D02*
X93535714Y-135544819D01*
X93535714Y-135544819D02*
X93202381Y-135925771D01*
X93202381Y-135925771D02*
X93345238Y-135925771D01*
X93345238Y-135925771D02*
X93440476Y-135973390D01*
X93440476Y-135973390D02*
X93488095Y-136021009D01*
X93488095Y-136021009D02*
X93535714Y-136116247D01*
X93535714Y-136116247D02*
X93535714Y-136354342D01*
X93535714Y-136354342D02*
X93488095Y-136449580D01*
X93488095Y-136449580D02*
X93440476Y-136497200D01*
X93440476Y-136497200D02*
X93345238Y-136544819D01*
X93345238Y-136544819D02*
X93059524Y-136544819D01*
X93059524Y-136544819D02*
X92964286Y-136497200D01*
X92964286Y-136497200D02*
X92916667Y-136449580D01*
X99318095Y-115264819D02*
X99318095Y-116074342D01*
X99318095Y-116074342D02*
X99365714Y-116169580D01*
X99365714Y-116169580D02*
X99413333Y-116217200D01*
X99413333Y-116217200D02*
X99508571Y-116264819D01*
X99508571Y-116264819D02*
X99699047Y-116264819D01*
X99699047Y-116264819D02*
X99794285Y-116217200D01*
X99794285Y-116217200D02*
X99841904Y-116169580D01*
X99841904Y-116169580D02*
X99889523Y-116074342D01*
X99889523Y-116074342D02*
X99889523Y-115264819D01*
X100270476Y-115264819D02*
X100889523Y-115264819D01*
X100889523Y-115264819D02*
X100556190Y-115645771D01*
X100556190Y-115645771D02*
X100699047Y-115645771D01*
X100699047Y-115645771D02*
X100794285Y-115693390D01*
X100794285Y-115693390D02*
X100841904Y-115741009D01*
X100841904Y-115741009D02*
X100889523Y-115836247D01*
X100889523Y-115836247D02*
X100889523Y-116074342D01*
X100889523Y-116074342D02*
X100841904Y-116169580D01*
X100841904Y-116169580D02*
X100794285Y-116217200D01*
X100794285Y-116217200D02*
X100699047Y-116264819D01*
X100699047Y-116264819D02*
X100413333Y-116264819D01*
X100413333Y-116264819D02*
X100318095Y-116217200D01*
X100318095Y-116217200D02*
X100270476Y-116169580D01*
X127257080Y-122056666D02*
X127304700Y-122104285D01*
X127304700Y-122104285D02*
X127352319Y-122247142D01*
X127352319Y-122247142D02*
X127352319Y-122342380D01*
X127352319Y-122342380D02*
X127304700Y-122485237D01*
X127304700Y-122485237D02*
X127209461Y-122580475D01*
X127209461Y-122580475D02*
X127114223Y-122628094D01*
X127114223Y-122628094D02*
X126923747Y-122675713D01*
X126923747Y-122675713D02*
X126780890Y-122675713D01*
X126780890Y-122675713D02*
X126590414Y-122628094D01*
X126590414Y-122628094D02*
X126495176Y-122580475D01*
X126495176Y-122580475D02*
X126399938Y-122485237D01*
X126399938Y-122485237D02*
X126352319Y-122342380D01*
X126352319Y-122342380D02*
X126352319Y-122247142D01*
X126352319Y-122247142D02*
X126399938Y-122104285D01*
X126399938Y-122104285D02*
X126447557Y-122056666D01*
X126352319Y-121723332D02*
X126352319Y-121104285D01*
X126352319Y-121104285D02*
X126733271Y-121437618D01*
X126733271Y-121437618D02*
X126733271Y-121294761D01*
X126733271Y-121294761D02*
X126780890Y-121199523D01*
X126780890Y-121199523D02*
X126828509Y-121151904D01*
X126828509Y-121151904D02*
X126923747Y-121104285D01*
X126923747Y-121104285D02*
X127161842Y-121104285D01*
X127161842Y-121104285D02*
X127257080Y-121151904D01*
X127257080Y-121151904D02*
X127304700Y-121199523D01*
X127304700Y-121199523D02*
X127352319Y-121294761D01*
X127352319Y-121294761D02*
X127352319Y-121580475D01*
X127352319Y-121580475D02*
X127304700Y-121675713D01*
X127304700Y-121675713D02*
X127257080Y-121723332D01*
X99343333Y-136544819D02*
X99010000Y-136068628D01*
X98771905Y-136544819D02*
X98771905Y-135544819D01*
X98771905Y-135544819D02*
X99152857Y-135544819D01*
X99152857Y-135544819D02*
X99248095Y-135592438D01*
X99248095Y-135592438D02*
X99295714Y-135640057D01*
X99295714Y-135640057D02*
X99343333Y-135735295D01*
X99343333Y-135735295D02*
X99343333Y-135878152D01*
X99343333Y-135878152D02*
X99295714Y-135973390D01*
X99295714Y-135973390D02*
X99248095Y-136021009D01*
X99248095Y-136021009D02*
X99152857Y-136068628D01*
X99152857Y-136068628D02*
X98771905Y-136068628D01*
X100200476Y-135878152D02*
X100200476Y-136544819D01*
X99962381Y-135497200D02*
X99724286Y-136211485D01*
X99724286Y-136211485D02*
X100343333Y-136211485D01*
X150308095Y-139216819D02*
X150879523Y-139216819D01*
X150593809Y-140216819D02*
X150593809Y-139216819D01*
X151212857Y-140216819D02*
X151212857Y-139216819D01*
X151212857Y-139216819D02*
X151593809Y-139216819D01*
X151593809Y-139216819D02*
X151689047Y-139264438D01*
X151689047Y-139264438D02*
X151736666Y-139312057D01*
X151736666Y-139312057D02*
X151784285Y-139407295D01*
X151784285Y-139407295D02*
X151784285Y-139550152D01*
X151784285Y-139550152D02*
X151736666Y-139645390D01*
X151736666Y-139645390D02*
X151689047Y-139693009D01*
X151689047Y-139693009D02*
X151593809Y-139740628D01*
X151593809Y-139740628D02*
X151212857Y-139740628D01*
X152165238Y-139312057D02*
X152212857Y-139264438D01*
X152212857Y-139264438D02*
X152308095Y-139216819D01*
X152308095Y-139216819D02*
X152546190Y-139216819D01*
X152546190Y-139216819D02*
X152641428Y-139264438D01*
X152641428Y-139264438D02*
X152689047Y-139312057D01*
X152689047Y-139312057D02*
X152736666Y-139407295D01*
X152736666Y-139407295D02*
X152736666Y-139502533D01*
X152736666Y-139502533D02*
X152689047Y-139645390D01*
X152689047Y-139645390D02*
X152117619Y-140216819D01*
X152117619Y-140216819D02*
X152736666Y-140216819D01*
X91527200Y-147618332D02*
X91574819Y-147475475D01*
X91574819Y-147475475D02*
X91574819Y-147237380D01*
X91574819Y-147237380D02*
X91527200Y-147142142D01*
X91527200Y-147142142D02*
X91479580Y-147094523D01*
X91479580Y-147094523D02*
X91384342Y-147046904D01*
X91384342Y-147046904D02*
X91289104Y-147046904D01*
X91289104Y-147046904D02*
X91193866Y-147094523D01*
X91193866Y-147094523D02*
X91146247Y-147142142D01*
X91146247Y-147142142D02*
X91098628Y-147237380D01*
X91098628Y-147237380D02*
X91051009Y-147427856D01*
X91051009Y-147427856D02*
X91003390Y-147523094D01*
X91003390Y-147523094D02*
X90955771Y-147570713D01*
X90955771Y-147570713D02*
X90860533Y-147618332D01*
X90860533Y-147618332D02*
X90765295Y-147618332D01*
X90765295Y-147618332D02*
X90670057Y-147570713D01*
X90670057Y-147570713D02*
X90622438Y-147523094D01*
X90622438Y-147523094D02*
X90574819Y-147427856D01*
X90574819Y-147427856D02*
X90574819Y-147189761D01*
X90574819Y-147189761D02*
X90622438Y-147046904D01*
X90574819Y-146713570D02*
X91574819Y-146475475D01*
X91574819Y-146475475D02*
X90860533Y-146284999D01*
X90860533Y-146284999D02*
X91574819Y-146094523D01*
X91574819Y-146094523D02*
X90574819Y-145856428D01*
X90670057Y-145523094D02*
X90622438Y-145475475D01*
X90622438Y-145475475D02*
X90574819Y-145380237D01*
X90574819Y-145380237D02*
X90574819Y-145142142D01*
X90574819Y-145142142D02*
X90622438Y-145046904D01*
X90622438Y-145046904D02*
X90670057Y-144999285D01*
X90670057Y-144999285D02*
X90765295Y-144951666D01*
X90765295Y-144951666D02*
X90860533Y-144951666D01*
X90860533Y-144951666D02*
X91003390Y-144999285D01*
X91003390Y-144999285D02*
X91574819Y-145570713D01*
X91574819Y-145570713D02*
X91574819Y-144951666D01*
D12*
%TO.C,SW4*%
X127500000Y-143355000D02*
X127530000Y-143355000D01*
X127500000Y-149815000D02*
X127500000Y-143355000D01*
X127530000Y-149815000D02*
X127500000Y-149815000D01*
X129430000Y-143355000D02*
X132030000Y-143355000D01*
X129430000Y-149815000D02*
X132030000Y-149815000D01*
X133960000Y-143355000D02*
X133930000Y-143355000D01*
X133960000Y-149815000D02*
X133930000Y-149815000D01*
X133960000Y-149815000D02*
X133960000Y-143355000D01*
%TO.C,R7*%
X127382936Y-137825000D02*
X127837064Y-137825000D01*
X127382936Y-139295000D02*
X127837064Y-139295000D01*
%TO.C,R1*%
X79552936Y-137205000D02*
X80007064Y-137205000D01*
X79552936Y-138675000D02*
X80007064Y-138675000D01*
%TO.C,TP7*%
X87730000Y-112860000D02*
X89630000Y-112860000D01*
X87730000Y-114760000D02*
X87730000Y-112860000D01*
X89630000Y-112860000D02*
X89630000Y-114760000D01*
X89630000Y-114760000D02*
X87730000Y-114760000D01*
%TO.C,TP3*%
X122420000Y-141040000D02*
X124320000Y-141040000D01*
X122420000Y-142940000D02*
X122420000Y-141040000D01*
X124320000Y-141040000D02*
X124320000Y-142940000D01*
X124320000Y-142940000D02*
X122420000Y-142940000D01*
%TO.C,J1*%
X94620000Y-97720000D02*
X94620000Y-108000000D01*
X94620000Y-97720000D02*
X103250000Y-97720000D01*
X94620000Y-97840000D02*
X103250000Y-97840000D01*
X94620000Y-97958095D02*
X103250000Y-97958095D01*
X94620000Y-98076190D02*
X103250000Y-98076190D01*
X94620000Y-98194285D02*
X103250000Y-98194285D01*
X94620000Y-98312380D02*
X103250000Y-98312380D01*
X94620000Y-98430475D02*
X103250000Y-98430475D01*
X94620000Y-98548570D02*
X103250000Y-98548570D01*
X94620000Y-98666665D02*
X103250000Y-98666665D01*
X94620000Y-98784760D02*
X103250000Y-98784760D01*
X94620000Y-98902855D02*
X103250000Y-98902855D01*
X94620000Y-99020950D02*
X103250000Y-99020950D01*
X94620000Y-99139045D02*
X103250000Y-99139045D01*
X94620000Y-99257140D02*
X103250000Y-99257140D01*
X94620000Y-99375235D02*
X103250000Y-99375235D01*
X94620000Y-99493330D02*
X103250000Y-99493330D01*
X94620000Y-99611425D02*
X103250000Y-99611425D01*
X94620000Y-99729520D02*
X103250000Y-99729520D01*
X94620000Y-99847615D02*
X103250000Y-99847615D01*
X94620000Y-99965710D02*
X103250000Y-99965710D01*
X94620000Y-100083805D02*
X103250000Y-100083805D01*
X94620000Y-100201900D02*
X103250000Y-100201900D01*
X94620000Y-100320000D02*
X103250000Y-100320000D01*
X94620000Y-102860000D02*
X103250000Y-102860000D01*
X94620000Y-105400000D02*
X103250000Y-105400000D01*
X94620000Y-108000000D02*
X103250000Y-108000000D01*
X103250000Y-97720000D02*
X103250000Y-108000000D01*
X103250000Y-98690000D02*
X103600000Y-98690000D01*
X103250000Y-99410000D02*
X103600000Y-99410000D01*
X103250000Y-101230000D02*
X103660000Y-101230000D01*
X103250000Y-101950000D02*
X103660000Y-101950000D01*
X103250000Y-103770000D02*
X103660000Y-103770000D01*
X103250000Y-104490000D02*
X103660000Y-104490000D01*
X103250000Y-106310000D02*
X103660000Y-106310000D01*
X103250000Y-107030000D02*
X103660000Y-107030000D01*
X104710000Y-97720000D02*
X105820000Y-97720000D01*
X105820000Y-97720000D02*
X105820000Y-99050000D01*
%TO.C,TP1*%
X146390000Y-104600000D02*
X148290000Y-104600000D01*
X146390000Y-106500000D02*
X146390000Y-104600000D01*
X148290000Y-104600000D02*
X148290000Y-106500000D01*
X148290000Y-106500000D02*
X146390000Y-106500000D01*
%TO.C,J4*%
X136445000Y-99525000D02*
X137775000Y-99525000D01*
X136445000Y-100855000D02*
X136445000Y-99525000D01*
X139045000Y-99525000D02*
X146725000Y-99525000D01*
X139045000Y-102185000D02*
X139045000Y-99525000D01*
X139045000Y-102185000D02*
X146725000Y-102185000D01*
X146725000Y-102185000D02*
X146725000Y-99525000D01*
%TO.C,C4*%
X106777500Y-119176267D02*
X106777500Y-118883733D01*
X107797500Y-119176267D02*
X107797500Y-118883733D01*
%TO.C,TP6*%
X87810000Y-117490000D02*
X89710000Y-117490000D01*
X87810000Y-119390000D02*
X87810000Y-117490000D01*
X89710000Y-117490000D02*
X89710000Y-119390000D01*
X89710000Y-119390000D02*
X87810000Y-119390000D01*
%TO.C,C2*%
X92957500Y-123943733D02*
X92957500Y-124236267D01*
X93977500Y-123943733D02*
X93977500Y-124236267D01*
%TO.C,U1*%
X136490000Y-114030000D02*
X136490000Y-115030000D01*
X136490000Y-132270000D02*
X136490000Y-131270000D01*
X137270000Y-114030000D02*
X136490000Y-114030000D01*
X137270000Y-132270000D02*
X136490000Y-132270000D01*
X162230000Y-114030000D02*
X156070000Y-114030000D01*
X162230000Y-114030000D02*
X162230000Y-132270000D01*
X162230000Y-132270000D02*
X155815000Y-132270000D01*
X155845000Y-114025000D02*
X155345000Y-114025000D01*
X155345000Y-113525000D01*
X155845000Y-114025000D01*
G36*
X155845000Y-114025000D02*
G01*
X155345000Y-114025000D01*
X155345000Y-113525000D01*
X155845000Y-114025000D01*
G37*
%TO.C,R5*%
X107422936Y-136775000D02*
X107877064Y-136775000D01*
X107422936Y-138245000D02*
X107877064Y-138245000D01*
%TO.C,R6*%
X114282936Y-136775000D02*
X114737064Y-136775000D01*
X114282936Y-138245000D02*
X114737064Y-138245000D01*
%TO.C,R11*%
X140127064Y-137735000D02*
X139672936Y-137735000D01*
X140127064Y-139205000D02*
X139672936Y-139205000D01*
%TO.C,F1*%
X113190436Y-111880000D02*
X114394564Y-111880000D01*
X113190436Y-113700000D02*
X114394564Y-113700000D01*
D13*
%TO.C,J2*%
X118920000Y-96420000D02*
X129080000Y-96420000D01*
X118920000Y-103620000D02*
X118920000Y-96420000D01*
X118920000Y-103620000D02*
X129080000Y-103620000D01*
X118920000Y-104620000D02*
X118920000Y-103620000D01*
X129080000Y-96420000D02*
X129080000Y-103620000D01*
X129080000Y-103620000D02*
X129080000Y-104620000D01*
X129080000Y-104620000D02*
X118920000Y-104620000D01*
D12*
%TO.C,D1*%
X106235000Y-130575000D02*
X106235000Y-132045000D01*
X106235000Y-132045000D02*
X108695000Y-132045000D01*
X108695000Y-130575000D02*
X106235000Y-130575000D01*
%TO.C,SW3*%
X103460000Y-142955000D02*
X103490000Y-142955000D01*
X103460000Y-149415000D02*
X103460000Y-142955000D01*
X103490000Y-149415000D02*
X103460000Y-149415000D01*
X105390000Y-142955000D02*
X107990000Y-142955000D01*
X105390000Y-149415000D02*
X107990000Y-149415000D01*
X109920000Y-142955000D02*
X109890000Y-142955000D01*
X109920000Y-149415000D02*
X109890000Y-149415000D01*
X109920000Y-149415000D02*
X109920000Y-142955000D01*
%TO.C,R2*%
X85562936Y-137355000D02*
X86017064Y-137355000D01*
X85562936Y-138825000D02*
X86017064Y-138825000D01*
%TO.C,TP5*%
X108330000Y-99400000D02*
X110230000Y-99400000D01*
X108330000Y-101300000D02*
X108330000Y-99400000D01*
X110230000Y-99400000D02*
X110230000Y-101300000D01*
X110230000Y-101300000D02*
X108330000Y-101300000D01*
%TO.C,SW5*%
X140520000Y-143455000D02*
X140550000Y-143455000D01*
X140520000Y-149915000D02*
X140520000Y-143455000D01*
X140550000Y-149915000D02*
X140520000Y-149915000D01*
X142450000Y-143455000D02*
X145050000Y-143455000D01*
X142450000Y-149915000D02*
X145050000Y-149915000D01*
X146980000Y-143455000D02*
X146950000Y-143455000D01*
X146980000Y-149915000D02*
X146950000Y-149915000D01*
X146980000Y-149915000D02*
X146980000Y-143455000D01*
%TO.C,C1*%
X111607500Y-124093733D02*
X111607500Y-124386267D01*
X112627500Y-124093733D02*
X112627500Y-124386267D01*
%TO.C,TP4*%
X108520000Y-103880000D02*
X110420000Y-103880000D01*
X108520000Y-105780000D02*
X108520000Y-103880000D01*
X110420000Y-103880000D02*
X110420000Y-105780000D01*
X110420000Y-105780000D02*
X108520000Y-105780000D01*
%TO.C,R8*%
X134092936Y-137975000D02*
X134547064Y-137975000D01*
X134092936Y-139445000D02*
X134547064Y-139445000D01*
%TO.C,U2*%
X116590000Y-117440000D02*
X120350000Y-117440000D01*
X116590000Y-124260000D02*
X120350000Y-124260000D01*
X120350000Y-117440000D02*
X120350000Y-118700000D01*
X120350000Y-124260000D02*
X120350000Y-123000000D01*
X115310000Y-117540000D02*
X115070000Y-117210000D01*
X115550000Y-117210000D01*
X115310000Y-117540000D01*
G36*
X115310000Y-117540000D02*
G01*
X115070000Y-117210000D01*
X115550000Y-117210000D01*
X115310000Y-117540000D01*
G37*
%TO.C,R10*%
X146587064Y-137735000D02*
X146132936Y-137735000D01*
X146587064Y-139205000D02*
X146132936Y-139205000D01*
%TO.C,F2*%
X105814564Y-111970000D02*
X104610436Y-111970000D01*
X105814564Y-113790000D02*
X104610436Y-113790000D01*
%TO.C,R9*%
X115037064Y-130455000D02*
X114582936Y-130455000D01*
X115037064Y-131925000D02*
X114582936Y-131925000D01*
%TO.C,SW1*%
X80520000Y-143155000D02*
X80550000Y-143155000D01*
X80520000Y-149615000D02*
X80520000Y-143155000D01*
X80550000Y-149615000D02*
X80520000Y-149615000D01*
X82450000Y-143155000D02*
X85050000Y-143155000D01*
X82450000Y-149615000D02*
X85050000Y-149615000D01*
X86980000Y-143155000D02*
X86950000Y-143155000D01*
X86980000Y-149615000D02*
X86950000Y-149615000D01*
X86980000Y-149615000D02*
X86980000Y-143155000D01*
%TO.C,R3*%
X92522936Y-137005000D02*
X92977064Y-137005000D01*
X92522936Y-138475000D02*
X92977064Y-138475000D01*
%TO.C,U3*%
X98230000Y-116900000D02*
X101990000Y-116900000D01*
X98230000Y-123720000D02*
X101990000Y-123720000D01*
X101990000Y-116900000D02*
X101990000Y-118160000D01*
X101990000Y-123720000D02*
X101990000Y-122460000D01*
X96950000Y-117000000D02*
X96710000Y-116670000D01*
X97190000Y-116670000D01*
X96950000Y-117000000D01*
G36*
X96950000Y-117000000D02*
G01*
X96710000Y-116670000D01*
X97190000Y-116670000D01*
X96950000Y-117000000D01*
G37*
%TO.C,C3*%
X124957500Y-121743733D02*
X124957500Y-122036267D01*
X125977500Y-121743733D02*
X125977500Y-122036267D01*
%TO.C,R4*%
X99282936Y-137005000D02*
X99737064Y-137005000D01*
X99282936Y-138475000D02*
X99737064Y-138475000D01*
%TO.C,TP2*%
X150620000Y-140460000D02*
X152520000Y-140460000D01*
X150620000Y-142360000D02*
X150620000Y-140460000D01*
X152520000Y-140460000D02*
X152520000Y-142360000D01*
X152520000Y-142360000D02*
X150620000Y-142360000D01*
%TO.C,SW2*%
X91940000Y-143055000D02*
X91970000Y-143055000D01*
X91940000Y-149515000D02*
X91940000Y-143055000D01*
X91970000Y-149515000D02*
X91940000Y-149515000D01*
X93870000Y-143055000D02*
X96470000Y-143055000D01*
X93870000Y-149515000D02*
X96470000Y-149515000D01*
X98400000Y-143055000D02*
X98370000Y-143055000D01*
X98400000Y-149515000D02*
X98370000Y-149515000D01*
X98400000Y-149515000D02*
X98400000Y-143055000D01*
%TD*%
M02*
